<svg width="142" height="142" viewBox="0 0 142 142" fill="none" xmlns="http://www.w3.org/2000/svg">
<path d="M70.2012 69.8287L70.3207 69.7697L70.4469 69.7269L70.5776 69.7009L70.7106 69.6922L70.8435 69.7009L70.9743 69.7269L71.1004 69.7697L71.22 69.8287L71.3308 69.9027L71.431 69.9906L71.5188 70.0907L71.5929 70.2015L71.6518 70.3211L71.6946 70.4472L71.7206 70.578L71.7294 70.7109L71.7206 70.8439L71.6946 70.9746L71.6518 71.1008L71.5929 71.2203L71.5188 71.3312L71.431 71.4313L71.3308 71.5192L71.22 71.5932L71.1004 71.6522L70.9743 71.695L70.8435 71.721L70.7106 71.7297L70.5776 71.721L70.4469 71.695L70.3207 71.6522L70.2012 71.5932L70.0904 71.5192L69.9902 71.4313L69.9023 71.3312L69.8283 71.2203L69.7693 71.1008L69.7265 70.9746L69.7005 70.8439L69.6918 70.7109L69.7005 70.578L69.7265 70.4472L69.7693 70.3211L69.8283 70.2015L69.9023 70.0907L69.9902 69.9906L70.0904 69.9027L70.2012 69.8287Z" stroke="url(#paint0_linear_1_317)"/>
<path d="M78.3764 41.7493L78.4122 41.968L78.5525 41.7965L91.6702 25.7628L87.8196 46.1178L87.7784 46.3356L87.9689 46.2224L105.779 35.6422L95.1992 53.4526L95.086 53.6431L95.3037 53.6019L115.659 49.7513L99.625 62.869L99.4535 63.0093L99.6722 63.0451L120.117 66.3885L100.563 73.2313L100.354 73.3045L100.547 73.4129L118.615 83.5471L97.901 83.2895L97.6795 83.2868L97.824 83.4548L111.336 99.1574L91.9591 91.8307L91.7519 91.7523L91.8302 91.9596L99.157 111.337L83.4543 97.8244L83.2864 97.6799L83.2891 97.9015L83.5466 118.616L73.4124 100.548L73.304 100.355L73.2308 100.564L66.3881 120.117L63.0447 99.6726L63.0089 99.4539L62.8686 99.6254L49.7509 115.659L53.6015 95.3041L53.6427 95.0864L53.4522 95.1996L35.6417 105.78L46.222 87.9694L46.3351 87.7788L46.1174 87.82L25.7624 91.6707L41.7961 78.5529L41.9676 78.4126L41.7489 78.3769L21.3045 75.0335L40.8577 68.1907L41.0669 68.1175L40.8736 68.0091L22.8057 57.8749L43.5201 58.1324L43.7417 58.1352L43.5971 57.9672L30.0849 42.2646L49.462 49.5913L49.6693 49.6697L49.5909 49.4624L42.2641 30.0853L57.9668 43.5975L58.1348 43.7421L58.132 43.5205L57.8745 22.8061L68.0087 40.8741L68.1171 41.0673L68.1903 40.8582L75.033 21.3049L78.3764 41.7493Z" stroke="url(#paint1_linear_1_317)" stroke-width="0.2"/>
<path d="M70.3621 69.7535L70.4901 69.7162L70.6217 69.696L70.755 69.6931L70.8875 69.7076L71.0169 69.7393L71.1411 69.7876L71.2579 69.8516L71.3654 69.9305L71.4617 70.0226L71.5451 70.1265L71.6142 70.2404L71.6679 70.3624L71.7052 70.4904L71.7255 70.6221L71.7284 70.7553L71.7139 70.8878L71.6822 71.0172L71.6339 71.1415L71.5698 71.2583L71.491 71.3657L71.3988 71.462L71.2949 71.5454L71.181 71.6145L71.059 71.6682L70.9311 71.7055L70.7994 71.7258L70.6661 71.7287L70.5337 71.7142L70.4042 71.6825L70.28 71.6342L70.1632 71.5701L70.0557 71.4913L69.9594 71.3991L69.876 71.2952L69.8069 71.1813L69.7532 71.0593L69.7159 70.9314L69.6957 70.7997L69.6928 70.6664L69.7073 70.534L69.7389 70.4045L69.7873 70.2803L69.8513 70.1635L69.9301 70.056L70.0223 69.9597L70.1262 69.8763L70.2401 69.8072L70.3621 69.7535Z" stroke="url(#paint2_linear_1_317)"/>
<path d="M83.2891 43.5204L83.2864 43.742L83.4543 43.5974L99.157 30.0852L91.8302 49.4623L91.7519 49.6696L91.9591 49.5912L111.336 42.2645L97.824 57.9671L97.6795 58.1351L97.9011 58.1323L118.615 57.8748L100.547 68.009L100.354 68.1174L100.563 68.1906L120.117 75.0333L99.6722 78.3768L99.4535 78.4125L99.625 78.5528L115.659 91.6706L95.3037 87.8199L95.086 87.7787L95.1992 87.9692L105.779 105.78L87.9689 95.1995L87.7784 95.0863L87.8196 95.304L91.6702 115.659L78.5525 99.6253L78.4122 99.4538L78.3765 99.6725L75.033 120.117L68.1903 100.564L68.1171 100.355L68.0087 100.548L57.8745 118.616L58.132 97.9014L58.1348 97.6798L57.9668 97.8243L42.2642 111.337L49.5909 91.9595L49.6693 91.7522L49.462 91.8305L30.0849 99.1573L43.5971 83.4547L43.7417 83.2867L43.5201 83.2894L22.8057 83.547L40.8736 73.4128L41.0669 73.3044L40.8578 73.2312L21.3045 66.3884L41.7489 63.045L41.9676 63.0092L41.7961 62.8689L25.7624 49.7512L46.1174 53.6018L46.3352 53.643L46.222 53.4525L35.6417 35.6421L53.4522 46.2223L53.6427 46.3355L53.6015 46.1177L49.7509 25.7627L62.8686 41.7964L63.0089 41.9679L63.0447 41.7492L66.3881 21.3048L73.2308 40.8581L73.304 41.0672L73.4125 40.874L83.5466 22.806L83.2891 43.5204Z" stroke="url(#paint3_linear_1_317)" stroke-width="0.2"/>
<path d="M70.5337 69.7073L70.6662 69.6928L70.7994 69.6957L70.9311 69.716L71.059 69.7533L71.181 69.807L71.295 69.8761L71.3989 69.9595L71.491 70.0558L71.5698 70.1633L71.6339 70.2801L71.6822 70.4043L71.7139 70.5337L71.7284 70.6662L71.7255 70.7994L71.7052 70.9312L71.6679 71.0591L71.6143 71.181L71.5451 71.295L71.4617 71.3989L71.3654 71.4911L71.258 71.5699L71.1411 71.634L71.017 71.6823L70.8875 71.7139L70.755 71.7285L70.6218 71.7255L70.4901 71.7053L70.3621 71.668L70.2402 71.6143L70.1262 71.5452L70.0223 71.4618L69.9302 71.3655L69.8513 71.258L69.7873 71.1412L69.739 71.017L69.7073 70.8876L69.6928 70.7551L69.6957 70.6219L69.716 70.4901L69.7533 70.3622L69.8069 70.2402L69.8761 70.1263L69.9595 70.0224L70.0557 69.9302L70.1632 69.8514L70.28 69.7873L70.4042 69.739L70.5337 69.7073Z" stroke="url(#paint4_linear_1_317)"/>
<path d="M87.8196 46.1173L87.7784 46.3351L87.969 46.2219L105.779 35.6416L95.1992 53.4521L95.086 53.6426L95.3038 53.6014L115.659 49.7508L99.6251 62.8685L99.4535 63.0088L99.6722 63.0446L120.117 66.388L100.563 73.2308L100.354 73.304L100.548 73.4124L118.616 83.5465L97.9011 83.289L97.6795 83.2863L97.824 83.4542L111.336 99.1569L91.9592 91.8301L91.7519 91.7518L91.8303 91.959L99.157 111.336L83.4544 97.8239L83.2864 97.6794L83.2892 97.901L83.5467 118.615L73.4125 100.547L73.3041 100.354L73.2309 100.563L66.3881 120.117L63.0447 99.6721L63.0089 99.4534L62.8686 99.6249L49.7509 115.659L53.6016 95.3036L53.6428 95.0859L53.4522 95.1991L35.6418 105.779L46.222 87.9688L46.3352 87.7783L46.1175 87.8195L25.7625 91.6701L41.7961 78.5524L41.9677 78.4121L41.749 78.3764L21.3045 75.0329L40.8578 68.1902L41.067 68.117L40.8737 68.0086L22.8057 57.8744L43.5201 58.1319L43.7417 58.1347L43.5972 57.9667L30.0849 42.2641L49.462 49.5908L49.6693 49.6692L49.5909 49.4619L42.2642 30.0848L57.9668 43.597L58.1348 43.7416L58.132 43.52L57.8745 22.8056L68.0087 40.8735L68.1171 41.0668L68.1903 40.8577L75.0331 21.3044L78.3765 41.7488L78.4122 41.9675L78.5526 41.796L91.6703 25.7623L87.8196 46.1173Z" stroke="url(#paint5_linear_1_317)" stroke-width="0.2"/>
<path d="M70.7106 69.6917L70.8436 69.7004L70.9742 69.7264L71.1005 69.7692L71.22 69.8282L71.3308 69.9022L71.431 69.9901L71.5188 70.0902L71.5929 70.2011L71.6518 70.3206L71.6946 70.4468L71.7206 70.5775L71.7294 70.7104L71.7206 70.8435L71.6946 70.9741L71.6518 71.1003L71.5929 71.2198L71.5188 71.3306L71.4309 71.4309L71.3308 71.5187L71.22 71.5927L71.1004 71.6517L70.9743 71.6945L70.8436 71.7205L70.7106 71.7292L70.5776 71.7205L70.4469 71.6945L70.3207 71.6517L70.2012 71.5927L70.0904 71.5187L69.9902 71.4308L69.9023 71.3307L69.8283 71.2198L69.7693 71.1003L69.7265 70.9741L69.7005 70.8435L69.6918 70.7105L69.7005 70.5775L69.7265 70.4468L69.7694 70.3206L69.8283 70.2011L69.9023 70.0903L69.9902 69.99L70.0904 69.9022L70.2012 69.8282L70.3207 69.7692L70.4469 69.7264L70.5776 69.7004L70.7106 69.6917Z" stroke="url(#paint6_linear_1_317)"/>
<path d="M91.8303 49.4616L91.7519 49.6689L91.9592 49.5905L111.336 42.2637L97.824 57.9664L97.6795 58.1344L97.9011 58.1316L118.616 57.8741L100.548 68.0083L100.354 68.1167L100.563 68.1899L120.117 75.0326L99.6722 78.376L99.4536 78.4118L99.6251 78.5521L115.659 91.6698L95.3038 87.8192L95.086 87.778L95.1992 87.9685L105.779 105.779L87.969 95.1987L87.7785 95.0856L87.8196 95.3033L91.6703 115.658L78.5526 99.6246L78.4123 99.4531L78.3765 99.6718L75.0331 120.116L68.1903 100.563L68.1171 100.354L68.0087 100.547L57.8745 118.615L58.1321 97.9006L58.1348 97.6791L57.9668 97.8236L42.2642 111.336L49.5909 91.9587L49.6693 91.7515L49.462 91.8298L30.0849 99.1566L43.5972 83.4539L43.7417 83.286L43.5201 83.2887L22.8057 83.5462L40.8737 73.4121L41.067 73.3036L40.8578 73.2304L21.3045 66.3877L41.749 63.0443L41.9677 63.0085L41.7961 62.8682L25.7624 49.7505L46.1175 53.6011L46.3352 53.6423L46.222 53.4518L35.6418 35.6413L53.4522 46.2216L53.6428 46.3347L53.6016 46.117L49.7509 25.762L62.8686 41.7957L63.009 41.9672L63.0447 41.7485L66.3881 21.3041L73.2309 40.8573L73.3041 41.0665L73.4125 40.8732L83.5467 22.8053L83.2892 43.5197L83.2864 43.7413L83.4544 43.5967L99.157 30.0845L91.8303 49.4616Z" stroke="url(#paint7_linear_1_317)" stroke-width="0.2"/>
<path d="M70.8876 69.7069L71.0171 69.7385L71.1412 69.7868L71.2581 69.8509L71.3656 69.9297L71.4618 70.0219L71.5452 70.1258L71.6144 70.2397L71.668 70.3617L71.7053 70.4897L71.7256 70.6214L71.7285 70.7546L71.714 70.8871L71.6823 71.0165L71.634 71.1407L71.5699 71.2576L71.4911 71.365L71.399 71.4613L71.295 71.5447L71.1811 71.6138L71.0591 71.6675L70.9312 71.7048L70.7995 71.7251L70.6663 71.728L70.5338 71.7135L70.4043 71.6818L70.2802 71.6335L70.1633 71.5694L70.0558 71.4906L69.9596 71.3984L69.8761 71.2945L69.807 71.1806L69.7533 71.0586L69.7161 70.9306L69.6958 70.799L69.6929 70.6657L69.7074 70.5333L69.7391 70.4038L69.7874 70.2796L69.8515 70.1628L69.9303 70.0553L70.0224 69.9591L70.1264 69.8756L70.2403 69.8065L70.3623 69.7528L70.4902 69.7155L70.6219 69.6953L70.7551 69.6924L70.8876 69.7069Z" stroke="url(#paint8_linear_1_317)"/>
<path d="M95.1993 53.4523L95.0861 53.6428L95.3038 53.6016L115.659 49.751L99.6251 62.8687L99.4536 63.009L99.6723 63.0448L120.117 66.3882L100.564 73.231L100.354 73.3042L100.548 73.4126L118.616 83.5468L97.9012 83.2892L97.6796 83.2865L97.8241 83.4545L111.336 99.1571L91.9593 91.8304L91.752 91.752L91.8304 91.9593L99.1571 111.336L83.4545 97.8241L83.2865 97.6796L83.2893 97.9012L83.5468 118.616L73.4126 100.548L73.3042 100.354L73.231 100.564L66.3882 120.117L63.0448 99.6723L63.009 99.4536L62.8687 99.6251L49.751 115.659L53.6017 95.3038L53.6428 95.0861L53.4523 95.1993L35.6419 105.779L46.2221 87.9691L46.3353 87.7785L46.1175 87.8197L25.7625 91.6704L41.7962 78.5527L41.9678 78.4123L41.7491 78.3766L21.3046 75.0332L40.8579 68.1904L41.067 68.1172L40.8738 68.0088L22.8058 57.8746L43.5202 58.1321L43.7418 58.1349L43.5973 57.9669L30.085 42.2643L49.4621 49.591L49.6694 49.6694L49.591 49.4621L42.2643 30.085L57.9669 43.5972L58.1349 43.7418L58.1321 43.5202L57.8746 22.8058L68.0088 40.8738L68.1172 41.067L68.1904 40.8579L75.0332 21.3046L78.3766 41.749L78.4123 41.9677L78.5527 41.7962L91.6704 25.7625L87.8197 46.1175L87.7785 46.3353L87.9691 46.2221L105.78 35.6419L95.1993 53.4523Z" stroke="url(#paint9_linear_1_317)" stroke-width="0.2"/>
<path d="M71.0592 69.7528L71.1812 69.8065L71.2951 69.8756L71.399 69.959L71.4912 70.0553L71.57 70.1628L71.6341 70.2796L71.6824 70.4038L71.7141 70.5333L71.7286 70.6657L71.7257 70.799L71.7054 70.9306L71.6681 71.0586L71.6144 71.1806L71.5453 71.2945L71.4619 71.3984L71.3656 71.4906L71.2582 71.5694L71.1413 71.6335L71.0171 71.6818L70.8877 71.7135L70.7552 71.728L70.622 71.7251L70.4903 71.7048L70.3623 71.6675L70.2403 71.6138L70.1264 71.5447L70.0225 71.4613L69.9303 71.365L69.8515 71.2576L69.7874 71.1407L69.7391 71.0165L69.7074 70.8871L69.6929 70.7546L69.6958 70.6214L69.7161 70.4897L69.7534 70.3617L69.8071 70.2397L69.8762 70.1258L69.9596 70.0219L70.0559 69.9297L70.1634 69.8509L70.2802 69.7868L70.4044 69.7385L70.5339 69.7069L70.6663 69.6923L70.7995 69.6953L70.9312 69.7155L71.0592 69.7528Z" stroke="url(#paint10_linear_1_317)"/>
<path d="M97.8243 57.9664L97.6797 58.1344L97.9013 58.1316L118.616 57.8741L100.548 68.0083L100.354 68.1167L100.564 68.1899L120.117 75.0326L99.6725 78.376L99.4538 78.4118L99.6253 78.5521L115.659 91.6698L95.304 87.8192L95.0863 87.778L95.1994 87.9685L105.78 105.779L87.9692 95.1987L87.7787 95.0856L87.8199 95.3033L91.6705 115.658L78.5528 99.6246L78.4125 99.4531L78.3767 99.6718L75.0333 120.116L68.1906 100.563L68.1174 100.354L68.009 100.547L57.8748 118.615L58.1323 97.9006L58.135 97.679L57.9671 97.8236L42.2644 111.336L49.5912 91.9587L49.6695 91.7515L49.4623 91.8298L30.0852 99.1566L43.5974 83.4539L43.7419 83.286L43.5204 83.2887L22.8059 83.5462L40.8739 73.412L41.0672 73.3036L40.858 73.2304L21.3048 66.3877L41.7492 63.0443L41.9679 63.0085L41.7964 62.8682L25.7627 49.7505L46.1177 53.6011L46.3354 53.6423L46.2223 53.4518L35.642 35.6413L53.4525 46.2216L53.643 46.3347L53.6018 46.117L49.7512 25.762L62.8689 41.7957L63.0092 41.9672L63.045 41.7485L66.3884 21.3041L73.2311 40.8573L73.3043 41.0665L73.4127 40.8732L83.5469 22.8053L83.2894 43.5197L83.2866 43.7413L83.4546 43.5967L99.1573 30.0845L91.8305 49.4616L91.7521 49.6689L91.9594 49.5905L111.337 42.2638L97.8243 57.9664Z" stroke="url(#paint11_linear_1_317)" stroke-width="0.2"/>
<path d="M71.2202 69.8282L71.331 69.9022L71.4312 69.99L71.5191 70.0903L71.5931 70.2011L71.652 70.3206L71.6949 70.4468L71.7209 70.5775L71.7296 70.7105L71.7209 70.8435L71.6949 70.9741L71.6521 71.1003L71.5931 71.2198L71.5191 71.3307L71.4312 71.4308L71.331 71.5187L71.2202 71.5927L71.1007 71.6517L70.9745 71.6945L70.8438 71.7205L70.7108 71.7292L70.5778 71.7205L70.4471 71.6945L70.321 71.6517L70.2014 71.5927L70.0906 71.5187L69.9904 71.4309L69.9026 71.3306L69.8285 71.2198L69.7696 71.1003L69.7267 70.9741L69.7008 70.8435L69.692 70.7104L69.7008 70.5775L69.7267 70.4468L69.7696 70.3206L69.8285 70.2011L69.9026 70.0902L69.9904 69.9901L70.0906 69.9022L70.2014 69.8282L70.3209 69.7692L70.4472 69.7264L70.5778 69.7004L70.7108 69.6917L70.8438 69.7004L70.9745 69.7264L71.1007 69.7692L71.2202 69.8282Z" stroke="url(#paint12_linear_1_317)"/>
<path d="M99.6252 62.8685L99.4537 63.0088L99.6724 63.0446L120.117 66.388L100.564 73.2308L100.354 73.3039L100.548 73.4124L118.616 83.5465L97.9013 83.289L97.6797 83.2863L97.8242 83.4542L111.336 99.1569L91.9594 91.8301L91.7521 91.7518L91.8305 91.959L99.1572 111.336L83.4546 97.8239L83.2866 97.6794L83.2893 97.9009L83.5469 118.615L73.4127 100.547L73.3043 100.354L73.2311 100.563L66.3883 120.117L63.0449 99.6721L63.0091 99.4534L62.8688 99.6249L49.7511 115.659L53.6018 95.3036L53.6429 95.0859L53.4524 95.1991L35.642 105.779L46.2222 87.9688L46.3354 87.7783L46.1176 87.8195L25.7626 91.6701L41.7963 78.5524L41.9678 78.4121L41.7491 78.3763L21.3047 75.0329L40.858 68.1902L41.0671 68.117L40.8739 68.0086L22.8059 57.8744L43.5203 58.1319L43.7419 58.1347L43.5973 57.9667L30.0851 42.2641L49.4622 49.5908L49.6695 49.6692L49.5911 49.4619L42.2644 30.0848L57.967 43.597L58.135 43.7416L58.1322 43.52L57.8747 22.8056L68.0089 40.8735L68.1173 41.0668L68.1905 40.8577L75.0333 21.3044L78.3767 41.7488L78.4124 41.9675L78.5528 41.796L91.6705 25.7623L87.8198 46.1173L87.7786 46.3351L87.9692 46.2219L105.78 35.6416L95.1994 53.4521L95.0862 53.6426L95.3039 53.6014L115.659 49.7508L99.6252 62.8685Z" stroke="url(#paint13_linear_1_317)" stroke-width="0.2"/>
<defs>
<linearGradient id="paint0_linear_1_317" x1="70.7106" y1="20.7109" x2="70.7106" y2="120.711" gradientUnits="userSpaceOnUse">
<stop stop-color="#FFCB6B"/>
<stop offset="1" stop-color="#3D8BFF"/>
</linearGradient>
<linearGradient id="paint1_linear_1_317" x1="75.0683" y1="20.9012" x2="66.3528" y2="120.521" gradientUnits="userSpaceOnUse">
<stop stop-color="#FFCB6B"/>
<stop offset="1" stop-color="#3D8BFF"/>
</linearGradient>
<linearGradient id="paint2_linear_1_317" x1="79.393" y1="21.4705" x2="62.0282" y2="119.951" gradientUnits="userSpaceOnUse">
<stop stop-color="#FFCB6B"/>
<stop offset="1" stop-color="#3D8BFF"/>
</linearGradient>
<linearGradient id="paint3_linear_1_317" x1="83.6515" y1="22.4146" x2="57.7696" y2="119.007" gradientUnits="userSpaceOnUse">
<stop stop-color="#FFCB6B"/>
<stop offset="1" stop-color="#3D8BFF"/>
</linearGradient>
<linearGradient id="paint4_linear_1_317" x1="87.8116" y1="23.726" x2="53.6096" y2="117.695" gradientUnits="userSpaceOnUse">
<stop stop-color="#FFCB6B"/>
<stop offset="1" stop-color="#3D8BFF"/>
</linearGradient>
<linearGradient id="paint5_linear_1_317" x1="91.8415" y1="25.3951" x2="49.5797" y2="116.026" gradientUnits="userSpaceOnUse">
<stop stop-color="#FFCB6B"/>
<stop offset="1" stop-color="#3D8BFF"/>
</linearGradient>
<linearGradient id="paint6_linear_1_317" x1="95.7106" y1="27.4092" x2="45.7106" y2="114.012" gradientUnits="userSpaceOnUse">
<stop stop-color="#FFCB6B"/>
<stop offset="1" stop-color="#3D8BFF"/>
</linearGradient>
<linearGradient id="paint7_linear_1_317" x1="99.3894" y1="29.7526" x2="42.0318" y2="111.668" gradientUnits="userSpaceOnUse">
<stop stop-color="#FFCB6B"/>
<stop offset="1" stop-color="#3D8BFF"/>
</linearGradient>
<linearGradient id="paint8_linear_1_317" x1="102.85" y1="32.4079" x2="38.5713" y2="109.012" gradientUnits="userSpaceOnUse">
<stop stop-color="#FFCB6B"/>
<stop offset="1" stop-color="#3D8BFF"/>
</linearGradient>
<linearGradient id="paint9_linear_1_317" x1="106.066" y1="35.3553" x2="35.3554" y2="106.066" gradientUnits="userSpaceOnUse">
<stop stop-color="#FFCB6B"/>
<stop offset="1" stop-color="#3D8BFF"/>
</linearGradient>
<linearGradient id="paint10_linear_1_317" x1="109.013" y1="38.5708" x2="32.4085" y2="102.85" gradientUnits="userSpaceOnUse">
<stop stop-color="#FFCB6B"/>
<stop offset="1" stop-color="#3D8BFF"/>
</linearGradient>
<linearGradient id="paint11_linear_1_317" x1="111.668" y1="42.0313" x2="29.7532" y2="99.389" gradientUnits="userSpaceOnUse">
<stop stop-color="#FFCB6B"/>
<stop offset="1" stop-color="#3D8BFF"/>
</linearGradient>
<linearGradient id="paint12_linear_1_317" x1="114.012" y1="45.7105" x2="27.4095" y2="95.7105" gradientUnits="userSpaceOnUse">
<stop stop-color="#FFCB6B"/>
<stop offset="1" stop-color="#3D8BFF"/>
</linearGradient>
<linearGradient id="paint13_linear_1_317" x1="116.026" y1="49.5796" x2="25.3954" y2="91.8414" gradientUnits="userSpaceOnUse">
<stop stop-color="#FFCB6B"/>
<stop offset="1" stop-color="#3D8BFF"/>
</linearGradient>
</defs>
</svg>
