<svg width="142" height="142" viewBox="0 0 142 142" fill="none" xmlns="http://www.w3.org/2000/svg">
<path opacity="0.689655" d="M75.0672 63.4734L75.2 64.5318L76.2476 64.331L110.623 57.7427L78.9402 72.6178L77.9746 73.0712L78.4893 74.0055L95.3776 104.662L71.4401 79.127L70.7106 78.3488L69.981 79.127L46.0435 104.662L62.9318 74.0055L63.4465 73.0712L62.4809 72.6178L30.7984 57.7427L65.1735 64.331L66.2212 64.5318L66.3539 63.4734L70.7106 28.7448L75.0672 63.4734Z" stroke="url(#paint0_radial_1_715)" stroke-width="2"/>
<path opacity="0.689655" d="M75.6814 63.8806L75.7214 64.9466L76.7826 64.8379L111.601 61.2707L78.7426 73.3278L77.7412 73.6953L78.1725 74.671L92.3247 106.683L70.7038 79.1586L70.0449 78.3197L69.2502 79.0315L43.1783 102.383L62.6743 73.3151L63.2685 72.4291L62.346 71.8933L32.0806 54.3135L65.7506 63.8727L66.7768 64.1641L67.0013 63.1212L74.3681 28.9046L75.6814 63.8806Z" stroke="url(#paint1_radial_1_715)" stroke-width="2"/>
<path opacity="0.689655" d="M76.2578 64.3398L76.2047 65.4052L77.2714 65.3894L112.268 64.8703L78.484 74.0178L77.4544 74.2966L77.799 75.3062L89.1073 108.43L69.9676 79.1258L69.3843 78.2327L68.5306 78.8724L40.5227 99.863L62.4779 72.6046L63.1471 71.7739L62.2748 71.1597L33.6567 51.009L66.3655 63.4664L67.3623 63.8461L67.6769 62.8267L77.9979 29.3823L76.2578 64.3398Z" stroke="url(#paint2_radial_1_715)" stroke-width="2"/>
<path opacity="0.689655" d="M76.792 64.8475L76.6463 65.9042L77.7102 65.9814L112.619 68.5145L78.1662 74.6827L77.1162 74.8707L77.3715 75.9065L85.7499 109.89L69.237 79.029L68.7337 78.0885L67.8276 78.6514L38.0968 97.121L62.3442 71.8799L63.0832 71.1106L62.2678 70.4228L35.5148 47.8545L67.0134 63.1152L67.9734 63.5804L68.3756 62.5923L81.5722 30.1747L76.792 64.8475Z" stroke="url(#paint3_radial_1_715)" stroke-width="2"/>
<path opacity="0.689655" d="M77.2799 65.3996L77.0426 66.4396L78.0958 66.6093L112.651 72.1752L77.7917 75.3172L76.7293 75.413L76.8934 76.467L82.278 111.051L68.5177 78.8687L68.0983 77.8879L67.1465 78.3696L35.9191 94.1778L62.2742 71.146L63.0774 70.4441L62.3251 69.6878L37.6408 44.8737L67.6895 62.8217L68.6053 63.3687L69.0921 62.4195L85.0638 31.2754L77.2799 65.3996Z" stroke="url(#paint4_radial_1_715)" stroke-width="2"/>
<path opacity="0.689655" d="M77.7178 65.9922L77.3908 67.0076L78.4252 67.2684L112.364 75.8248L77.3633 75.9167L76.2965 75.9195L76.3682 76.9838L78.7181 111.906L67.815 78.6464L67.4827 77.6327L66.4926 78.0297L34.0062 91.056L62.2683 70.4089L63.1297 69.7796L62.4461 68.9607L40.0185 42.0897L68.3886 62.5882L69.2532 63.213L69.8209 62.3098L88.4462 32.6763L77.7178 65.9922Z" stroke="url(#paint5_radial_1_715)" stroke-width="2"/>
<path opacity="0.689655" d="M78.1023 66.6208L77.6881 67.6039L78.6958 67.9538L111.76 79.4357L76.8842 76.4766L75.8213 76.3865L75.7998 77.453L75.0972 112.447L67.1343 78.3638L66.8916 77.325L65.8707 77.6342L32.3726 87.7796L62.3267 69.6743L63.2396 69.1225L62.6301 68.247L42.6298 39.5236L69.1053 62.4167L69.9122 63.1145L70.5564 62.2642L91.6936 34.3667L78.1023 66.6208Z" stroke="url(#paint6_radial_1_715)" stroke-width="2"/>
<path opacity="0.689655" d="M78.4306 67.2803L77.9323 68.2235L78.9057 68.66L110.843 82.9799L76.3582 76.9925L75.3072 76.81L75.1929 77.8706L71.443 112.67L66.4809 78.0227L66.3297 76.9667L65.2857 77.1858L31.0309 84.373L62.4489 68.9472L63.4065 68.4771L62.8756 67.5518L45.4548 37.1946L69.8343 62.3081L70.5773 63.0735L71.2932 62.2826L94.7814 36.3335L78.4306 67.2803Z" stroke="url(#paint7_radial_1_715)" stroke-width="2"/>
<path opacity="0.689655" d="M78.7003 67.9662L78.1216 68.8624L79.0533 69.382L109.621 86.4309L75.7892 77.4608L74.7581 77.1874L74.5518 78.234L67.7833 112.574L65.8598 77.6262L65.8012 76.5611L64.7421 76.6883L29.9912 80.8627L62.6341 68.2339L63.629 67.849L63.1807 66.881L48.472 35.1209L70.57 62.2637L71.2435 63.0909L72.0255 62.3655L97.686 38.5623L78.7003 67.9662Z" stroke="url(#paint8_radial_1_715)" stroke-width="2"/>
<path opacity="0.689655" d="M78.909 68.6735L78.2545 69.5159L79.1373 70.1147L108.103 89.7629L75.1816 77.8783L74.1782 77.516L73.8815 78.5407L64.1457 112.16L65.2755 77.1776L65.3099 76.1114L64.2437 76.1459L29.2613 77.2756L62.8807 67.5399L63.9053 67.2432L63.5431 66.2398L51.6585 33.3186L71.3067 62.2841L71.9055 63.1669L72.7478 62.5123L100.385 41.0362L78.909 68.6735Z" stroke="url(#paint9_radial_1_715)" stroke-width="2"/>
<path opacity="0.689655" d="M79.0554 69.3953L78.33 70.1774L79.1572 70.8509L106.3 92.9488L74.5399 78.2401L73.5719 77.7918L73.187 78.7867L60.5582 111.43L64.7326 76.6788L64.8598 75.6197L63.7947 75.561L28.8469 73.6376L63.1869 66.869L64.2335 66.6627L63.9601 65.6316L54.99 31.7999L72.0389 62.3676L72.5585 63.2992L73.4547 62.7206L102.859 43.7349L79.0554 69.3953Z" stroke="url(#paint10_radial_1_715)" stroke-width="2"/>
<path opacity="0.689655" d="M79.1384 70.1276L78.3475 70.8435L79.1129 71.5865L104.226 95.966L73.8691 78.5452L72.9439 78.0142L72.4738 78.9718L57.048 110.39L64.2352 76.135L64.4543 75.091L63.3983 74.9398L28.7511 69.9777L63.5504 66.2279L64.611 66.1136L64.4285 65.0626L58.4411 30.5778L72.761 62.5151L73.1975 63.4884L74.1407 62.9901L105.087 46.6394L79.1384 70.1276Z" stroke="url(#paint11_radial_1_715)" stroke-width="2"/>
<path opacity="0.689655" d="M79.157 70.8646L78.3068 71.5088L79.0045 72.3157L101.898 98.7912L73.1742 78.7909L72.2988 78.1814L71.747 79.0943L53.6417 109.048L63.787 75.5503L64.0963 74.5294L63.0575 74.2867L28.9746 66.3238L63.9683 65.6212L65.0348 65.5997L64.9446 64.5368L61.9856 29.6614L73.4674 62.7252L73.8174 63.7329L74.8004 63.3187L107.055 49.7274L79.157 70.8646Z" stroke="url(#paint12_radial_1_715)" stroke-width="2"/>
<path opacity="0.689655" d="M79.1114 71.6002L78.2083 72.1678L78.833 73.0325L99.3316 101.403L72.4606 78.9749L71.6416 78.2914L71.0123 79.1527L50.3652 107.415L63.3915 74.9285L63.7886 73.9384L62.7749 73.606L29.5157 62.703L64.4375 65.0529L65.5018 65.1245L65.5046 64.0578L65.5964 29.0572L74.1529 62.9959L74.4137 64.0303L75.4291 63.7033L108.745 52.9748L79.1114 71.6002Z" stroke="url(#paint13_radial_1_715)" stroke-width="2"/>
<defs>
<radialGradient id="paint0_radial_1_715" cx="0" cy="0" r="1" gradientUnits="userSpaceOnUse" gradientTransform="translate(70.7106 70.7109) rotate(90) scale(50)">
<stop stop-color="#58D3F3"/>
<stop offset="0.369792" stop-color="#62D69E"/>
<stop offset="0.59375" stop-color="#5F64E7"/>
<stop offset="1" stop-color="#D24AE6"/>
</radialGradient>
<radialGradient id="paint1_radial_1_715" cx="0" cy="0" r="1" gradientUnits="userSpaceOnUse" gradientTransform="translate(70.7105 70.711) rotate(95) scale(50)">
<stop stop-color="#58D3F3"/>
<stop offset="0.369792" stop-color="#62D69E"/>
<stop offset="0.59375" stop-color="#5F64E7"/>
<stop offset="1" stop-color="#D24AE6"/>
</radialGradient>
<radialGradient id="paint2_radial_1_715" cx="0" cy="0" r="1" gradientUnits="userSpaceOnUse" gradientTransform="translate(70.7106 70.7109) rotate(100) scale(50)">
<stop stop-color="#58D3F3"/>
<stop offset="0.369792" stop-color="#62D69E"/>
<stop offset="0.59375" stop-color="#5F64E7"/>
<stop offset="1" stop-color="#D24AE6"/>
</radialGradient>
<radialGradient id="paint3_radial_1_715" cx="0" cy="0" r="1" gradientUnits="userSpaceOnUse" gradientTransform="translate(70.7106 70.7109) rotate(105) scale(50)">
<stop stop-color="#58D3F3"/>
<stop offset="0.369792" stop-color="#62D69E"/>
<stop offset="0.59375" stop-color="#5F64E7"/>
<stop offset="1" stop-color="#D24AE6"/>
</radialGradient>
<radialGradient id="paint4_radial_1_715" cx="0" cy="0" r="1" gradientUnits="userSpaceOnUse" gradientTransform="translate(70.7106 70.7106) rotate(110) scale(50)">
<stop stop-color="#58D3F3"/>
<stop offset="0.369792" stop-color="#62D69E"/>
<stop offset="0.59375" stop-color="#5F64E7"/>
<stop offset="1" stop-color="#D24AE6"/>
</radialGradient>
<radialGradient id="paint5_radial_1_715" cx="0" cy="0" r="1" gradientUnits="userSpaceOnUse" gradientTransform="translate(70.7106 70.7105) rotate(115) scale(50)">
<stop stop-color="#58D3F3"/>
<stop offset="0.369792" stop-color="#62D69E"/>
<stop offset="0.59375" stop-color="#5F64E7"/>
<stop offset="1" stop-color="#D24AE6"/>
</radialGradient>
<radialGradient id="paint6_radial_1_715" cx="0" cy="0" r="1" gradientUnits="userSpaceOnUse" gradientTransform="translate(70.7106 70.7105) rotate(120) scale(50)">
<stop stop-color="#58D3F3"/>
<stop offset="0.369792" stop-color="#62D69E"/>
<stop offset="0.59375" stop-color="#5F64E7"/>
<stop offset="1" stop-color="#D24AE6"/>
</radialGradient>
<radialGradient id="paint7_radial_1_715" cx="0" cy="0" r="1" gradientUnits="userSpaceOnUse" gradientTransform="translate(70.7106 70.7102) rotate(125) scale(50)">
<stop stop-color="#58D3F3"/>
<stop offset="0.369792" stop-color="#62D69E"/>
<stop offset="0.59375" stop-color="#5F64E7"/>
<stop offset="1" stop-color="#D24AE6"/>
</radialGradient>
<radialGradient id="paint8_radial_1_715" cx="0" cy="0" r="1" gradientUnits="userSpaceOnUse" gradientTransform="translate(70.7107 70.7102) rotate(130) scale(50)">
<stop stop-color="#58D3F3"/>
<stop offset="0.369792" stop-color="#62D69E"/>
<stop offset="0.59375" stop-color="#5F64E7"/>
<stop offset="1" stop-color="#D24AE6"/>
</radialGradient>
<radialGradient id="paint9_radial_1_715" cx="0" cy="0" r="1" gradientUnits="userSpaceOnUse" gradientTransform="translate(70.7107 70.7107) rotate(135) scale(50)">
<stop stop-color="#58D3F3"/>
<stop offset="0.369792" stop-color="#62D69E"/>
<stop offset="0.59375" stop-color="#5F64E7"/>
<stop offset="1" stop-color="#D24AE6"/>
</radialGradient>
<radialGradient id="paint10_radial_1_715" cx="0" cy="0" r="1" gradientUnits="userSpaceOnUse" gradientTransform="translate(70.7107 70.7102) rotate(140) scale(50)">
<stop stop-color="#58D3F3"/>
<stop offset="0.369792" stop-color="#62D69E"/>
<stop offset="0.59375" stop-color="#5F64E7"/>
<stop offset="1" stop-color="#D24AE6"/>
</radialGradient>
<radialGradient id="paint11_radial_1_715" cx="0" cy="0" r="1" gradientUnits="userSpaceOnUse" gradientTransform="translate(70.7108 70.7102) rotate(145) scale(50)">
<stop stop-color="#58D3F3"/>
<stop offset="0.369792" stop-color="#62D69E"/>
<stop offset="0.59375" stop-color="#5F64E7"/>
<stop offset="1" stop-color="#D24AE6"/>
</radialGradient>
<radialGradient id="paint12_radial_1_715" cx="0" cy="0" r="1" gradientUnits="userSpaceOnUse" gradientTransform="translate(70.7108 70.7105) rotate(150) scale(50)">
<stop stop-color="#58D3F3"/>
<stop offset="0.369792" stop-color="#62D69E"/>
<stop offset="0.59375" stop-color="#5F64E7"/>
<stop offset="1" stop-color="#D24AE6"/>
</radialGradient>
<radialGradient id="paint13_radial_1_715" cx="0" cy="0" r="1" gradientUnits="userSpaceOnUse" gradientTransform="translate(70.7108 70.7105) rotate(155) scale(50)">
<stop stop-color="#58D3F3"/>
<stop offset="0.369792" stop-color="#62D69E"/>
<stop offset="0.59375" stop-color="#5F64E7"/>
<stop offset="1" stop-color="#D24AE6"/>
</radialGradient>
</defs>
</svg>
