<svg width="142" height="142" viewBox="0 0 142 142" fill="none" xmlns="http://www.w3.org/2000/svg">
<path d="M76.1206 52.6385L76.2885 53.5439L76.9564 52.9101L98.4874 32.4794L85.7101 59.27L85.3137 60.1011L86.2267 59.981L115.654 56.1078L89.5703 70.2715L88.7611 70.7109L89.5703 71.1503L115.654 85.3141L86.2267 81.4409L85.3137 81.3208L85.7101 82.1519L98.4874 108.943L76.9564 88.5118L76.2885 87.878L76.1206 88.7834L70.7106 117.968L65.3005 88.7834L65.1326 87.878L64.4647 88.5118L42.9337 108.943L55.711 82.1519L56.1074 81.3208L55.1945 81.4409L25.7667 85.3141L51.8509 71.1503L52.6601 70.7109L51.8509 70.2715L25.7666 56.1078L55.1945 59.981L56.1074 60.1011L55.711 59.27L42.9337 32.4794L64.4647 52.9101L65.1326 53.5439L65.3005 52.6385L70.7106 23.4541L76.1206 52.6385Z" stroke="url(#paint0_linear_1_17)"/>
<path d="M77.6751 53.1788L77.7634 54.0954L78.4841 53.5222L101.714 35.0458L86.6502 60.6209L86.1828 61.4143L87.1028 61.3742L116.756 60.0805L89.5368 71.917L88.6924 72.2842L89.4602 72.7924L114.211 89.1757L85.2324 82.7524L84.3334 82.5532L84.6559 83.4157L95.0496 111.218L75.3812 88.9885L74.771 88.2988L74.5249 89.1862L66.5918 117.788L63.7459 88.2431L63.6577 87.3266L62.937 87.8997L39.7073 106.376L54.7709 80.8011L55.2382 80.0077L54.3183 80.0478L24.6649 81.3414L51.8843 69.505L52.7287 69.1378L51.9609 68.6295L27.2104 52.2463L56.1887 58.6695L57.0877 58.8688L56.7652 58.0063L46.3715 30.204L66.0399 52.4335L66.6501 53.1231L66.8962 52.2358L74.8292 23.634L77.6751 53.1788Z" stroke="url(#paint1_linear_1_17)"/>
<path d="M79.1767 53.8525L79.1848 54.7732L79.9526 54.265L104.704 37.8835L87.4689 62.0484L86.9342 62.7981L87.8542 62.8383L117.507 64.134L89.36 73.5531L88.4868 73.8453L89.2074 74.4186L112.436 92.8966L84.1277 83.9722L83.2495 83.6953L83.4955 84.5827L91.4266 113.185L73.7704 89.3259L73.2227 88.5857L72.9002 89.4482L62.5045 117.25L62.2444 87.5693L62.2364 86.6485L61.4685 87.1567L36.7168 103.538L53.9522 79.3734L54.4869 78.6237L53.5669 78.5835L23.9136 77.2878L52.0611 67.8687L52.9343 67.5764L52.2137 67.0032L28.9853 48.5251L57.2934 57.4496L58.1716 57.7264L57.9256 56.8391L49.9945 28.2367L67.6507 52.0959L68.1984 52.836L68.5209 51.9736L78.9166 24.172L79.1767 53.8525Z" stroke="url(#paint2_linear_1_17)"/>
<path d="M80.6138 54.6545L80.5416 55.5725L81.3508 55.1331L107.436 40.9712L88.1601 63.5419L87.5622 64.2422L88.4751 64.3624L117.903 68.2376L89.0414 75.1677L88.146 75.3827L88.8139 76.0166L110.343 96.4488L82.9208 85.0911L82.0701 84.7388L82.2379 85.6441L87.6459 114.829L72.1364 89.5217L71.6552 88.7366L71.2588 89.5677L58.4796 116.357L60.8073 86.7673L60.8795 85.8493L60.0703 86.2886L33.9851 100.451L53.261 77.8798L53.859 77.1796L52.946 77.0594L23.5185 73.1841L52.3798 66.2541L53.2751 66.0391L52.6072 65.4052L31.0776 44.973L58.5003 56.3307L59.351 56.683L59.1832 55.7776L53.7752 26.5928L69.2847 51.9L69.7659 52.6851L70.1623 51.854L82.9415 25.0643L80.6138 54.6545Z" stroke="url(#paint3_linear_1_17)"/>
<path d="M81.9755 55.5785L81.8236 56.4867L82.668 56.1195L109.888 44.285L88.7186 65.0898L88.0618 65.7353L88.9608 65.9346L117.939 72.3599L88.5832 76.7481L87.6725 76.8843L88.2826 77.5739L107.949 99.8048L81.6211 86.1003L80.8043 85.6752L80.8925 86.5918L83.7363 116.137L70.4915 89.5742L70.0806 88.7501L69.6133 89.5435L54.5478 115.118L59.4456 85.8428L59.5976 84.9346L58.7531 85.3018L31.5329 97.1363L52.7026 76.3315L53.3593 75.686L52.4603 75.4867L23.4825 69.0614L52.838 64.6731L53.7487 64.537L53.1385 63.8473L33.4717 41.6164L59.8001 55.3209L60.6169 55.7461L60.5286 54.8295L57.6848 25.2845L70.9296 51.8471L71.3405 52.6711L71.8079 51.8778L86.8734 26.3037L81.9755 55.5785Z" stroke="url(#paint4_linear_1_17)"/>
<path d="M83.2515 56.6177L83.021 57.5092L83.8942 57.217L112.042 47.7999L89.1399 66.6805L88.4295 67.2663L89.3076 67.5432L117.615 76.4696L87.989 78.2827L87.0699 78.3389L87.6176 79.0792L105.272 102.94L80.2383 86.9925L79.4616 86.4978L79.4696 87.4186L79.7276 117.099L68.8483 89.4831L68.5108 88.6264L67.976 89.3761L50.739 113.54L58.1697 84.8033L58.4002 83.9118L57.5269 84.2039L29.3788 93.621L52.2812 74.7404L52.9917 74.1547L52.1135 73.8777L23.806 64.9513L53.4322 63.1382L54.3513 63.082L53.8036 62.3418L36.1491 38.4814L61.1829 54.4284L61.9595 54.9231L61.9515 54.0024L61.6936 24.3219L72.5729 51.9378L72.9104 52.7945L73.4451 52.0449L90.6822 27.8812L83.2515 56.6177Z" stroke="url(#paint5_linear_1_17)"/>
<path d="M84.432 57.7643L84.1247 58.6323L85.0201 58.4174L113.882 51.4894L89.421 68.3021L88.6622 68.8237L89.5129 69.1761L116.935 80.5357L87.2632 79.7598L86.3428 79.7357L86.8238 80.5208L102.332 105.829L78.7829 87.7609L78.0524 87.2004L77.9801 88.1184L75.6502 117.708L67.2192 89.2494L66.9577 88.3665L66.3596 89.0667L47.0821 111.636L56.9891 83.6566L57.2964 82.7886L56.4011 83.0035L27.5393 89.9315L52.0001 73.1188L52.7589 72.5972L51.9082 72.2448L24.4864 60.8852L54.1579 61.6611L55.0784 61.6852L54.5973 60.9001L39.0896 35.5918L62.6382 53.66L63.3688 54.2205L63.441 53.3025L65.7709 23.7125L74.2019 52.1715L74.4635 53.0544L75.0615 52.3542L94.339 29.7848L84.432 57.7643Z" stroke="url(#paint6_linear_1_17)"/>
<path d="M85.5082 59.0092L85.1264 59.8471L86.0371 59.711L115.393 55.3248L89.5598 69.9417L88.7584 70.3951L89.5751 70.8203L115.903 84.5267L86.4116 81.1677L85.4967 81.0635L85.9075 81.8876L99.1505 108.451L77.2662 88.3993L76.5873 87.7772L76.4353 88.6854L71.5353 117.96L65.6168 88.8743L65.4331 87.9719L64.7763 88.6173L43.6052 109.421L55.913 82.4111L56.2948 81.5732L55.3841 81.7093L26.0284 86.0955L51.8614 71.4786L52.6628 71.0252L51.8461 70.6L25.5187 56.8936L55.0096 60.2526L55.9245 60.3568L55.5137 59.5327L42.2707 32.9692L64.155 53.021L64.8339 53.6431L64.9859 52.7349L69.8858 23.4605L75.8044 52.5461L75.9881 53.4484L76.6448 52.803L97.816 31.9996L85.5082 59.0092Z" stroke="url(#paint7_linear_1_17)"/>
<path d="M86.4718 60.3434L86.0184 61.1449L86.9375 61.0887L116.564 59.2777L89.5551 71.5874L88.7172 71.9693L89.4938 72.4641L114.526 88.4129L85.4405 82.4963L84.5382 82.3128L84.8756 83.1695L95.753 110.786L75.6996 88.9034L75.0775 88.2245L74.8469 89.116L67.4142 117.852L64.0531 88.3612L63.9488 87.4463L63.2383 88.032L40.3346 106.911L54.9496 81.0769L55.403 80.2755L54.4839 80.3317L24.8576 82.1426L51.8663 69.8329L52.7042 69.451L51.9276 68.9562L26.8949 53.0074L55.9809 58.924L56.8832 59.1075L56.5458 58.2508L45.6684 30.6341L65.7218 52.517L66.3439 53.1958L66.5745 52.3044L74.0072 23.5684L77.3683 53.0591L77.4725 53.974L78.1831 53.3883L101.087 34.5093L86.4718 60.3434Z" stroke="url(#paint8_linear_1_17)"/>
<path d="M87.3153 61.757L86.7938 62.5159L87.7143 62.5401L117.386 63.3181L89.4069 73.227L88.539 73.5344L89.2695 74.095L112.817 92.1648L84.3572 83.7358L83.4743 83.4743L83.7358 84.3572L92.1648 112.817L74.095 89.2695L73.5344 88.539L73.227 89.4069L63.3181 117.386L62.5401 87.7143L62.5159 86.7938L61.757 87.3153L37.2951 104.126L54.106 79.6643L54.6276 78.9054L53.7071 78.8813L24.0357 78.1033L52.0144 68.1944L52.8824 67.887L52.1519 67.3264L28.6046 49.2565L57.0642 57.6856L57.9471 57.9471L57.6856 57.0642L49.2565 28.6045L67.3264 52.1519L67.887 52.8824L68.1944 52.0144L78.1033 24.0357L78.8813 53.7071L78.9054 54.6276L79.6643 54.106L104.126 37.2951L87.3153 61.757Z" stroke="url(#paint9_linear_1_17)"/>
<path d="M88.0326 63.2378L87.4469 63.9483L88.3618 64.0526L117.852 67.4137L89.1165 74.8464L88.2251 75.077L88.9039 75.6991L110.787 95.7525L83.1701 84.8751L82.3134 84.5376L82.4969 85.44L88.4135 114.526L72.4647 89.4933L71.9699 88.7167L71.588 89.5546L59.2783 116.563L61.0893 86.9369L61.1454 86.0179L60.344 86.4713L34.5099 101.086L53.3889 78.1825L53.9746 77.472L53.0597 77.3677L23.569 74.0066L52.305 66.5739L53.1964 66.3433L52.5175 65.7212L30.6347 45.6679L58.2514 56.5452L59.1081 56.8827L58.9246 55.9803L53.008 26.8944L68.9568 51.927L69.4516 52.7036L69.8335 51.8657L82.1432 24.8571L80.3322 54.4834L80.2761 55.4025L81.0775 54.9491L106.912 40.3341L88.0326 63.2378Z" stroke="url(#paint10_linear_1_17)"/>
<path d="M88.618 64.7759L87.9726 65.4327L88.8749 65.6163L117.96 71.5349L88.6861 76.4348L87.7779 76.5868L88.4 77.2657L108.452 99.15L81.8883 85.9071L81.0642 85.4963L81.1684 86.4111L84.5274 115.902L70.821 89.5747L70.3958 88.7579L69.9424 89.5593L55.3255 115.392L59.7117 86.0366L59.8478 85.1259L59.0099 85.5078L32.0003 97.8156L52.8037 76.6444L53.4491 75.9876L52.5467 75.804L23.4612 69.8854L52.7356 64.9855L53.6438 64.8335L53.0217 64.1546L32.9699 42.2703L59.5334 55.5132L60.3575 55.9241L60.2533 55.0092L56.8943 25.5182L70.6007 51.8457L71.0259 52.6624L71.4793 51.861L86.0962 26.0279L81.71 55.3837L81.5739 56.2944L82.4118 55.9126L109.421 43.6048L88.618 64.7759Z" stroke="url(#paint11_linear_1_17)"/>
<path d="M89.067 66.3595L88.3669 66.9575L89.2497 67.2191L117.709 75.6501L88.1187 77.98L87.2008 78.0523L87.7613 78.7828L105.829 102.331L80.5212 86.8237L79.7361 86.3426L79.7601 87.2631L80.536 116.935L69.1764 89.5128L68.824 88.6621L68.3024 89.4209L51.4897 113.882L58.4177 85.02L58.6327 84.1246L57.7647 84.4319L29.7852 94.3389L52.3546 75.0614L53.0548 74.4634L52.1719 74.2018L23.7129 65.7708L53.3029 63.4409L54.2209 63.3687L53.6603 62.6381L35.5921 39.0895L60.9004 54.5972L61.6856 55.0783L61.6615 54.1578L60.8856 24.4863L72.2452 51.9081L72.5976 52.7588L73.1192 52L89.9319 27.5392L83.0039 56.4009L82.7889 57.2963L83.657 56.989L111.636 47.082L89.067 66.3595Z" stroke="url(#paint12_linear_1_17)"/>
<path d="M89.3764 67.9759L88.6267 68.5107L89.4835 68.8482L117.099 79.7275L87.4189 79.4695L86.4981 79.4615L86.9928 80.2381L102.94 105.272L79.0795 87.6175L78.3392 87.0698L78.283 87.9889L76.4699 117.615L67.5435 89.3075L67.2666 88.4293L66.6808 89.1398L47.8002 112.042L57.2173 83.8941L57.5095 83.0209L56.618 83.2514L27.8815 90.6821L52.0452 73.445L52.7948 72.9103L51.9381 72.5728L24.3222 61.6934L54.0027 61.9514L54.9235 61.9594L54.4287 61.1828L38.4817 36.149L62.3421 53.8035L63.0823 54.3512L63.1386 53.4321L64.9516 23.8059L73.8781 52.1134L74.155 52.9916L74.7407 52.2811L93.6213 29.3787L84.2042 57.5268L83.9121 58.4001L84.8036 58.1695L113.54 50.7389L89.3764 67.9759Z" stroke="url(#paint13_linear_1_17)"/>
<defs>
<linearGradient id="paint0_linear_1_17" x1="70.7106" y1="20.7109" x2="70.7106" y2="120.711" gradientUnits="userSpaceOnUse">
<stop stop-color="#9BF8F4"/>
<stop offset="0.520833" stop-color="#D086F5" stop-opacity="0.2"/>
<stop offset="1" stop-color="#6F7BF7"/>
</linearGradient>
<linearGradient id="paint1_linear_1_17" x1="75.0683" y1="20.9012" x2="66.3528" y2="120.521" gradientUnits="userSpaceOnUse">
<stop stop-color="#9BF8F4"/>
<stop offset="0.520833" stop-color="#D086F5" stop-opacity="0.2"/>
<stop offset="1" stop-color="#6F7BF7"/>
</linearGradient>
<linearGradient id="paint2_linear_1_17" x1="79.393" y1="21.4705" x2="62.0281" y2="119.951" gradientUnits="userSpaceOnUse">
<stop stop-color="#9BF8F4"/>
<stop offset="0.520833" stop-color="#D086F5" stop-opacity="0.2"/>
<stop offset="1" stop-color="#6F7BF7"/>
</linearGradient>
<linearGradient id="paint3_linear_1_17" x1="83.6515" y1="22.4146" x2="57.7696" y2="119.007" gradientUnits="userSpaceOnUse">
<stop stop-color="#9BF8F4"/>
<stop offset="0.520833" stop-color="#D086F5" stop-opacity="0.2"/>
<stop offset="1" stop-color="#6F7BF7"/>
</linearGradient>
<linearGradient id="paint4_linear_1_17" x1="87.8116" y1="23.726" x2="53.6096" y2="117.695" gradientUnits="userSpaceOnUse">
<stop stop-color="#9BF8F4"/>
<stop offset="0.520833" stop-color="#D086F5" stop-opacity="0.2"/>
<stop offset="1" stop-color="#6F7BF7"/>
</linearGradient>
<linearGradient id="paint5_linear_1_17" x1="91.8415" y1="25.3951" x2="49.5797" y2="116.026" gradientUnits="userSpaceOnUse">
<stop stop-color="#9BF8F4"/>
<stop offset="0.520833" stop-color="#D086F5" stop-opacity="0.2"/>
<stop offset="1" stop-color="#6F7BF7"/>
</linearGradient>
<linearGradient id="paint6_linear_1_17" x1="95.7106" y1="27.4092" x2="45.7106" y2="114.012" gradientUnits="userSpaceOnUse">
<stop stop-color="#9BF8F4"/>
<stop offset="0.520833" stop-color="#D086F5" stop-opacity="0.2"/>
<stop offset="1" stop-color="#6F7BF7"/>
</linearGradient>
<linearGradient id="paint7_linear_1_17" x1="99.3894" y1="29.7526" x2="42.0318" y2="111.668" gradientUnits="userSpaceOnUse">
<stop stop-color="#9BF8F4"/>
<stop offset="0.520833" stop-color="#D086F5" stop-opacity="0.2"/>
<stop offset="1" stop-color="#6F7BF7"/>
</linearGradient>
<linearGradient id="paint8_linear_1_17" x1="102.85" y1="32.4079" x2="38.5713" y2="109.012" gradientUnits="userSpaceOnUse">
<stop stop-color="#9BF8F4"/>
<stop offset="0.520833" stop-color="#D086F5" stop-opacity="0.2"/>
<stop offset="1" stop-color="#6F7BF7"/>
</linearGradient>
<linearGradient id="paint9_linear_1_17" x1="106.066" y1="35.3553" x2="35.3553" y2="106.066" gradientUnits="userSpaceOnUse">
<stop stop-color="#9BF8F4"/>
<stop offset="0.520833" stop-color="#D086F5" stop-opacity="0.2"/>
<stop offset="1" stop-color="#6F7BF7"/>
</linearGradient>
<linearGradient id="paint10_linear_1_17" x1="109.013" y1="38.5708" x2="32.4085" y2="102.85" gradientUnits="userSpaceOnUse">
<stop stop-color="#9BF8F4"/>
<stop offset="0.520833" stop-color="#D086F5" stop-opacity="0.2"/>
<stop offset="1" stop-color="#6F7BF7"/>
</linearGradient>
<linearGradient id="paint11_linear_1_17" x1="111.668" y1="42.0313" x2="29.7532" y2="99.389" gradientUnits="userSpaceOnUse">
<stop stop-color="#9BF8F4"/>
<stop offset="0.520833" stop-color="#D086F5" stop-opacity="0.2"/>
<stop offset="1" stop-color="#6F7BF7"/>
</linearGradient>
<linearGradient id="paint12_linear_1_17" x1="114.012" y1="45.7105" x2="27.4095" y2="95.7105" gradientUnits="userSpaceOnUse">
<stop stop-color="#9BF8F4"/>
<stop offset="0.520833" stop-color="#D086F5" stop-opacity="0.2"/>
<stop offset="1" stop-color="#6F7BF7"/>
</linearGradient>
<linearGradient id="paint13_linear_1_17" x1="116.026" y1="49.5796" x2="25.3954" y2="91.8414" gradientUnits="userSpaceOnUse">
<stop stop-color="#9BF8F4"/>
<stop offset="0.520833" stop-color="#D086F5" stop-opacity="0.2"/>
<stop offset="1" stop-color="#6F7BF7"/>
</linearGradient>
</defs>
</svg>
