<svg width="338" height="280" viewBox="0 0 338 280" fill="none" xmlns="http://www.w3.org/2000/svg">
<g id="Group 32955">
<path id="Vector" d="M245.437 48.637H254.099C254.605 48.637 255.091 48.8378 255.449 49.1955C255.807 49.5531 256.008 50.0383 256.009 50.5445V57.2818C256.009 57.7877 256.21 58.2728 256.568 58.6306C256.926 58.9883 257.411 59.1893 257.917 59.1893H260.198C260.705 59.1893 261.19 59.3902 261.548 59.7478C261.906 60.1054 262.108 60.5906 262.109 61.0968V85.2845C262.108 85.7906 261.906 86.2758 261.548 86.6334C261.19 86.9911 260.705 87.192 260.198 87.192H231.855C231.349 87.192 230.864 86.991 230.506 86.6333C230.148 86.2755 229.947 85.7904 229.947 85.2845V70.8007C229.947 70.2948 230.148 69.8096 230.506 69.4519C230.864 69.0941 231.349 68.8932 231.855 68.8932H239.757C240.134 68.8924 240.502 68.7801 240.815 68.5703C241.129 68.3605 241.373 68.0627 241.517 67.7143C241.662 67.366 241.7 66.9827 241.627 66.6127C241.554 66.2428 241.373 65.9027 241.107 65.6354C240.84 65.3688 240.658 65.0289 240.584 64.6588C240.51 64.2887 240.547 63.9049 240.691 63.5561C240.836 63.2073 241.08 62.9092 241.394 62.6994C241.708 62.4897 242.077 62.3777 242.454 62.3777H245.504C246.01 62.3777 246.496 62.1768 246.854 61.8192C247.212 61.4615 247.414 60.9763 247.414 60.4702V56.1062C247.414 55.6 247.212 55.1149 246.854 54.7572C246.496 54.3996 246.01 54.1987 245.504 54.1987H243.777C243.271 54.1987 242.786 53.9977 242.428 53.64C242.07 53.2823 241.869 52.7971 241.869 52.2912V50.5528C241.868 50.0481 242.068 49.5638 242.424 49.2061C242.78 48.8485 243.264 48.6467 243.768 48.6453L245.437 48.637Z" fill="#FFD37C"/>
<path id="Vector_2" d="M251.024 64.6124C251.024 64.6124 252.311 70.5401 257.251 72.2202L246.233 73.9919L248.654 64.4543L251.024 64.6124Z" fill="#0D2D4B"/>
<g id="leftPersonArm">
<path id="Vector_3" d="M108.271 84.021C105.585 88.391 106.949 94.1113 111.319 96.7976C115.689 99.4839 121.41 98.119 124.096 93.7491L147.327 55.9577C150.013 51.5878 148.649 45.8675 144.279 43.1812C139.909 40.4948 134.188 41.8597 131.502 46.2297L108.271 84.021Z" fill="#F17068"/>
<path id="Vector_4" d="M122.65 95.2462L110.988 79.2874L115.979 71.6296L133.568 78.3475L123.734 94.456C123.734 94.456 122.946 95.3959 122.65 95.2462Z" fill="#0D2D4B"/>
<path id="Vector_5" d="M170.69 16.2758L148.074 54.4371C147.458 55.4988 146.639 56.428 145.662 57.1711C144.685 57.9141 143.571 58.4562 142.384 58.7662C141.196 59.0761 139.959 59.1476 138.744 58.9766C137.529 58.8056 136.36 58.3955 135.304 57.77C134.248 57.1445 133.327 56.316 132.593 55.3323C131.859 54.3486 131.328 53.2293 131.029 52.039C130.731 50.8487 130.671 49.611 130.854 48.3975C131.036 47.184 131.457 46.0187 132.093 44.9689L146.56 20.5705C146.496 20.2979 146.463 20.0188 146.463 19.7387L146.485 6.98504C146.485 6.02911 146.865 5.11234 147.541 4.4364C148.217 3.76047 149.134 3.38073 150.09 3.38073C150.335 3.38146 150.581 3.40653 150.821 3.45559C151.633 3.62532 152.362 4.06993 152.884 4.71442C153.407 5.35891 153.691 6.16383 153.688 6.99335V8.54321L154.706 6.827C155.962 4.70779 158.008 3.1743 160.395 2.56388C162.781 1.95345 165.313 2.3161 167.432 3.57203C169.551 4.82797 171.084 6.87431 171.695 9.2609C172.305 11.6475 171.943 14.1788 170.687 16.298L170.69 16.2758Z" fill="#F17068"/>
<path id="Vector_6" d="M141.151 25.2617C141.21 25.0876 141.287 24.9195 141.378 24.7599L142.975 21.8986C143.066 21.7379 143.169 21.5841 143.283 21.4384C143.797 20.7879 144.525 20.3414 145.338 20.1789C146.151 20.0163 146.995 20.1483 147.719 20.5512L161.79 28.4113C162.514 28.8168 163.07 29.4669 163.359 30.2452C163.647 31.0236 163.649 31.8792 163.364 32.6589C163.3 32.8328 163.222 33.0015 163.132 33.1635L161.532 36.0247C161.443 36.1855 161.341 36.3385 161.227 36.4822C160.713 37.1322 159.984 37.5781 159.171 37.7402C158.359 37.9022 157.515 37.7698 156.791 37.3666L142.717 29.5065C141.994 29.101 141.439 28.4509 141.152 27.6729C140.864 26.8948 140.864 26.0399 141.151 25.2617Z" fill="#0D2D4B"/>
</g>
<path id="Vector_7" d="M141.151 25.2618C141.21 25.0877 141.287 24.9196 141.378 24.76L142.975 21.8987C143.066 21.738 143.169 21.5842 143.283 21.4385C143.325 21.4551 143.363 21.4773 143.405 21.4967L163.256 32.5869L163.373 32.6562C163.308 32.8301 163.23 32.9988 163.14 33.1608L161.54 36.0221C161.451 36.1828 161.349 36.3358 161.235 36.4795C161.194 36.4614 161.155 36.4411 161.116 36.4185L141.265 25.3284L141.151 25.2618Z" fill="#34B5FA"/>
<path id="Vector_8" d="M123.936 88.0043L118.779 120.202C118.572 121.495 117.991 122.699 117.107 123.665C116.224 124.632 115.077 125.319 113.808 125.642L113.084 130.147C112.992 130.726 112.786 131.281 112.479 131.78C112.172 132.279 111.77 132.713 111.295 133.057C110.82 133.401 110.282 133.648 109.712 133.783C109.142 133.919 108.551 133.941 107.972 133.848L74.0802 128.42C73.5012 128.327 72.9462 128.121 72.4468 127.814C71.9475 127.506 71.5135 127.104 71.1698 126.629C70.8261 126.154 70.5793 125.616 70.4436 125.045C70.3079 124.475 70.2859 123.883 70.3788 123.304L71.0332 119.212C69.5835 118.669 68.3664 117.641 67.5881 116.303C66.8099 114.965 66.5185 113.399 66.7634 111.87L71.9204 79.6728C72.2017 77.9157 73.1694 76.3424 74.6107 75.2989C76.052 74.2553 77.8488 73.8271 79.6059 74.1083L118.374 80.3188C120.131 80.6014 121.703 81.5696 122.746 83.0106C123.788 84.4517 124.217 86.2477 123.936 88.0043Z" fill="#0F69A5"/>
<path id="Vector_9" d="M108.066 142.967C109.351 137.774 106.183 132.522 100.989 131.237C95.7958 129.951 90.5438 133.12 89.2585 138.313L76.3866 190.326C75.1013 195.52 78.2696 200.772 83.463 202.057C88.6565 203.342 93.9085 200.174 95.1938 194.98L108.066 142.967Z" fill="#D16562"/>
<path id="Vector_10" d="M95.4225 194.474C96.7359 189.288 93.5961 184.018 88.4097 182.705C83.2232 181.392 77.9541 184.532 76.6408 189.718L64.8617 236.234C63.5484 241.421 66.6882 246.69 71.8746 248.003C77.061 249.316 82.3301 246.177 83.6435 240.99L95.4225 194.474Z" fill="#D16562"/>
<path id="Vector_11" d="M60.6513 249.296L80.377 254.836L87.9108 228.016L68.1851 222.475L60.6513 249.296Z" fill="#FFEDCC"/>
<path id="Vector_12" d="M93.8761 277.497L54.7583 262.198L61.6897 243.749L72.1422 247.83L73.9388 241.503L84.9485 244.631L82.8497 252.025C85.7795 253.261 88.3744 255.173 90.4213 257.606C92.4682 260.039 93.9088 262.923 94.6247 266.021C94.7134 266.404 94.7938 266.789 94.8576 267.177C95.4562 270.643 95.1174 274.206 93.8761 277.497Z" fill="#FFD37C"/>
<path id="Vector_13" d="M75.8631 249.278L82.3841 251.831C85.4233 253.023 88.1262 254.938 90.259 257.409C92.3919 259.881 93.8904 262.835 94.6249 266.016C78.766 265.043 75.5803 250.212 75.5803 250.212C75.6536 249.895 75.7481 249.583 75.8631 249.278Z" fill="#EA636A"/>
<path id="Vector_14" d="M92.9341 147.137C93.4645 141.813 89.5788 137.067 84.255 136.537C78.9312 136.006 74.1855 139.892 73.655 145.216L68.8976 192.964C68.3671 198.288 72.2529 203.034 77.5766 203.564C82.9004 204.094 87.6462 200.209 88.1766 194.885L92.9341 147.137Z" fill="#F17068"/>
<path id="Vector_15" d="M72.1533 247.814L62.1389 243.893L66.2229 229.565C66.2229 229.565 67.1766 244.553 72.1533 247.814Z" fill="#0D2D4B"/>
<path id="Vector_16" d="M68.2966 222.451L86.9891 227.688C86.9891 227.688 71.1856 217.541 70.6173 213.457L68.2966 222.451Z" fill="#0D2D4B"/>
<path id="Vector_17" d="M91.9799 157.407L103.813 160.271C103.813 160.271 92.723 161.46 91.04 165.314L91.9799 157.407Z" fill="#0D2D4B"/>
<path id="Vector_18" d="M94.4141 279.737L53.0449 263.554L54.958 258.469L96.3271 274.649L94.4141 279.737Z" fill="#EA636A"/>
<g id="leftPersonLeg">
<path id="Vector_19" d="M53.6965 153.157C50.1507 149.151 44.0284 148.777 40.022 152.323C36.0156 155.869 35.6423 161.991 39.1881 165.998L70.9898 201.93C74.5356 205.937 80.6579 206.31 84.6642 202.764C88.6706 199.218 89.044 193.096 85.4982 189.09L53.6965 153.157Z" fill="#F17068"/>
<path id="Vector_20" d="M44.3368 142.189L29.5896 155.241L48.0529 176.102L62.8001 163.051L44.3368 142.189Z" fill="#FFEDCC"/>
<path id="Vector_21" d="M39.3597 152.63L43.7043 157.565L36.9615 163.501L32.043 157.911L30.4432 159.067C27.7952 160.977 24.7218 162.212 21.489 162.667C18.2562 163.122 14.9612 162.782 11.8893 161.676C11.5178 161.543 11.1518 161.399 10.7803 161.247C7.54467 159.871 4.73461 157.658 2.64014 154.834L36.6898 130.239L48.4509 146.061L39.3597 152.63Z" fill="#FFD37C"/>
<path id="Vector_22" d="M39.343 152.663L48.0876 146.339L54.1179 153.206C54.1179 153.206 43.9371 149.452 39.343 152.663Z" fill="#0D2D4B"/>
<path id="Vector_23" d="M48.0627 176.091L62.6657 163.188L71.0638 172.614C71.0638 172.614 58.2186 167.005 48.0627 176.091Z" fill="#0D2D4B"/>
<path id="Vector_24" d="M72.2143 159.772L91.4973 161.69C91.4973 161.69 73.8806 162.891 71.657 165.511L72.2143 159.772Z" fill="#0D2D4B"/>
<path id="Vector_25" d="M0.469238 154.069L36.479 128.057L39.7201 132.421L3.71034 158.43L0.469238 154.069Z" fill="#EA636A"/>
</g>
<path id="Vector_26" d="M113.883 125.284V135.542C113.887 137.302 113.313 139.014 112.251 140.416C111.188 141.818 109.694 142.833 108 143.305L103.799 160.293L91.9299 157.335L91.4973 161.69L72.2143 159.772L73.9582 142.41C72.7756 141.695 71.7972 140.688 71.1173 139.485C70.4374 138.282 70.079 136.924 70.0767 135.542V125.284H113.883Z" fill="#34B5FA"/>
<path id="Vector_27" d="M93.2496 143.671L107.925 143.522C107.925 143.522 94.683 151.033 90.929 164.967L93.2496 143.671Z" fill="#0D2D4B"/>
<path id="Vector_28" d="M107.14 70.7674L105.271 71.2193L106.625 76.781C107.094 78.7102 106.779 80.7469 105.747 82.4433C104.715 84.1396 103.052 85.3566 101.122 85.8265C99.1933 86.2963 97.1565 85.9806 95.4601 84.9488C93.7638 83.9169 92.5468 82.2535 92.077 80.3244L88.9495 67.4764L88.6529 66.2759C88.4815 66.3486 88.3043 66.407 88.1233 66.4505C87.2083 66.6372 86.2565 66.4614 85.4686 65.9602C84.6806 65.4591 84.1179 64.6716 83.899 63.7637C83.6801 62.8559 83.8221 61.8985 84.2952 61.0933C84.7682 60.2881 85.5353 59.6979 86.4348 59.4471C86.617 59.4029 86.8024 59.3732 86.9893 59.3584L86.238 56.2698C85.7675 54.3363 86.0841 52.295 87.1182 50.5949C88.1523 48.8948 89.8193 47.6749 91.7526 47.2035L100.877 44.9855C101.834 44.7521 102.828 44.7096 103.802 44.8602C104.775 45.0109 105.71 45.3519 106.552 45.8637C107.394 46.3755 108.126 47.0482 108.708 47.8432C109.29 48.6383 109.71 49.5401 109.943 50.4973L112.674 61.7067C112.906 62.6651 112.947 63.6598 112.795 64.6339C112.642 65.6081 112.299 66.5427 111.785 67.3842C111.271 68.2258 110.597 68.9577 109.8 69.5382C109.003 70.1187 108.099 70.5364 107.14 70.7674Z" fill="#F17068"/>
<path id="Vector_29" d="M106.286 75.3949C106.286 75.3949 102.066 74.1445 99.9092 72.5309L105.271 71.2195L106.286 75.3949Z" fill="#0D2D4B"/>
<path id="Vector_30" d="M103.846 59.9961C104.918 59.9961 105.787 59.1271 105.787 58.0553C105.787 56.9834 104.918 56.1145 103.846 56.1145C102.774 56.1145 101.906 56.9834 101.906 58.0553C101.906 59.1271 102.774 59.9961 103.846 59.9961Z" fill="#0F3F70"/>
<path id="Vector_31" d="M108.828 58.7817C109.9 58.7817 110.769 57.9128 110.769 56.8409C110.769 55.7691 109.9 54.9001 108.828 54.9001C107.757 54.9001 106.888 55.7691 106.888 56.8409C106.888 57.9128 107.757 58.7817 108.828 58.7817Z" fill="#0F3F70"/>
<path id="Vector_32" d="M94.4114 50.0787L110.232 51.8198L108.632 45.1907L94.4114 50.0787Z" fill="#0D2D4B"/>
<path id="Vector_33" d="M86.4875 58.0637L84.6909 50.7026C84.6325 50.4688 84.621 50.2258 84.6569 49.9876C84.6929 49.7493 84.7756 49.5205 84.9003 49.3144C85.025 49.1082 85.1893 48.9288 85.3837 48.7864C85.578 48.644 85.7986 48.5414 86.0328 48.4846C86.2656 48.428 86.4851 48.3261 86.6785 48.1847C86.872 48.0433 87.0357 47.8652 87.1604 47.6605C87.285 47.4558 87.368 47.2286 87.4048 46.9918C87.4416 46.755 87.4313 46.5132 87.3747 46.2804L87.3165 46.0447C87.2581 45.811 87.2466 45.568 87.2825 45.3297C87.3185 45.0915 87.4012 44.8627 87.5259 44.6565C87.6506 44.4504 87.8149 44.2709 88.0093 44.1285C88.2036 43.9861 88.4242 43.8835 88.6584 43.8267L98.7033 41.3813C99.621 41.1567 99.9787 39.7843 99.84 38.85C99.2523 34.8825 103.444 30.4381 109.067 35.6006C115.524 41.5421 113.836 50.1814 106.805 48.9254C106.719 48.9088 104.703 49.2027 104.617 49.2027L95.8781 49.7572C95.596 49.7462 95.3153 49.8008 95.0579 49.9167C94.8005 50.0326 94.5736 50.2066 94.3949 50.4251C94.2162 50.6436 94.0906 50.9005 94.028 51.1758C93.9655 51.451 93.9676 51.737 94.0343 52.0113L94.2949 53.0898C94.4095 53.5596 94.3328 54.0558 94.0817 54.4691C93.8305 54.8824 93.4256 55.1791 92.9558 55.2939L92.246 55.4686C92.0132 55.5252 91.7937 55.6271 91.6003 55.7685C91.4068 55.9099 91.2431 56.088 91.1185 56.2927C90.9938 56.4974 90.9108 56.7246 90.874 56.9614C90.8372 57.1982 90.8475 57.44 90.9041 57.6728L91.7692 61.2383C91.8258 61.4711 91.8361 61.7128 91.7993 61.9496C91.7625 62.1864 91.6795 62.4137 91.5548 62.6184C91.4302 62.8231 91.2665 63.0012 91.073 63.1426C90.8796 63.284 90.6601 63.3859 90.4272 63.4425L90.0557 63.534C89.61 63.6428 89.1395 63.5798 88.7382 63.3573C88.3369 63.1348 88.0342 62.7692 87.8904 62.3334L86.5291 58.2079C86.5125 58.1606 86.4987 58.1125 86.4875 58.0637Z" fill="#0F3F70"/>
<path id="Vector_34" d="M85.933 62.1338C85.933 62.1338 85.1206 63.3066 88.2508 62.7687" stroke="#0F3F70" stroke-miterlimit="10"/>
<path id="Vector_35" d="M86.4875 64.9951C86.4875 64.9951 85.8249 63.4425 87.2749 62.949" stroke="#0F3F70" stroke-miterlimit="10"/>
<path id="Vector_36" d="M105.981 126.393L106.064 132.77C106.072 133.313 105.971 133.853 105.768 134.357C105.565 134.862 105.264 135.32 104.882 135.707C104.5 136.094 104.046 136.401 103.544 136.611C103.043 136.821 102.504 136.929 101.961 136.929V136.929" stroke="#0D2D4B" stroke-miterlimit="10"/>
<path id="Vector_37" d="M114.504 47.04C114.584 47.3607 114.606 47.6929 114.571 48.0214C114.508 48.6217 114.262 49.1879 113.865 49.6422C113.467 50.0965 112.939 50.4166 112.353 50.5583L86.7731 56.8021C86.0232 56.9829 85.2322 56.8595 84.573 56.459C83.9138 56.0585 83.4398 55.4133 83.2547 54.6645C83.0741 53.9141 83.1977 53.1227 83.5985 52.4631C83.7964 52.136 84.057 51.8512 84.3653 51.6252C84.6737 51.3992 85.0237 51.2364 85.3951 51.1461L110.986 44.9134C111.521 44.782 112.082 44.8055 112.604 44.9813C113.126 45.157 113.587 45.4778 113.933 45.906C114.206 46.236 114.402 46.6237 114.504 47.04Z" fill="#0D2D4B"/>
<path id="Vector_38" d="M114.504 47.0401C114.583 47.3608 114.606 47.693 114.57 48.0216L83.6621 55.5546C83.4806 55.2788 83.3474 54.9741 83.2684 54.6535C83.1652 54.2335 83.1586 53.7955 83.249 53.3726L113.947 45.8867C114.218 46.2237 114.408 46.6182 114.504 47.0401Z" fill="#34B5FA"/>
<path id="Vector_39" d="M36.1214 154.97L30.4433 159.067C27.7953 160.977 24.7219 162.212 21.4891 162.667C18.2562 163.121 14.9613 162.781 11.8894 161.676C21.2966 148.873 35.4865 154.224 35.4865 154.224C35.7139 154.458 35.926 154.708 36.1214 154.97Z" fill="#EA636A"/>
<path id="Vector_40" d="M81.2256 128.255L79.5732 128.063L76.1109 157.806L77.7632 157.998L81.2256 128.255Z" fill="#FFD37C"/>
<path id="Vector_41" d="M85.6597 128.255L84.0073 128.063L80.5449 157.806L82.1973 157.998L85.6597 128.255Z" fill="#FFD37C"/>
<path id="Vector_42" d="M142.471 114.956L102.773 134.758C101.681 135.302 100.492 135.626 99.2748 135.711C98.0574 135.796 96.8351 135.64 95.6779 135.252C94.5206 134.865 93.451 134.253 92.5301 133.453C91.6092 132.652 90.8551 131.677 90.3108 130.585C89.7665 129.493 89.4426 128.304 89.3577 127.087C89.2728 125.869 89.4286 124.647 89.816 123.49C90.2035 122.332 90.8151 121.263 91.6159 120.342C92.4168 119.421 93.3912 118.667 94.4835 118.122L119.877 105.458C119.971 105.19 120.097 104.935 120.251 104.698L127.183 93.993C127.44 93.5948 127.773 93.2512 128.163 92.982C128.554 92.7127 128.993 92.5231 129.457 92.424C129.92 92.3248 130.399 92.3181 130.865 92.4042C131.331 92.4902 131.776 92.6674 132.173 92.9256C132.376 93.0649 132.565 93.2237 132.736 93.3997C133.326 93.9824 133.697 94.7506 133.786 95.5748C133.876 96.3991 133.678 97.2289 133.227 97.9245L132.39 99.2221L134.178 98.3293C135.27 97.7848 136.459 97.4608 137.677 97.3757C138.894 97.2906 140.116 97.4462 141.274 97.8336C142.431 98.2209 143.501 98.8324 144.422 99.6332C145.343 100.434 146.097 101.408 146.642 102.501C147.186 103.593 147.51 104.782 147.596 105.999C147.681 107.217 147.525 108.439 147.138 109.596C146.75 110.754 146.139 111.824 145.338 112.745C144.537 113.666 143.563 114.42 142.471 114.965V114.956Z" fill="#F17068"/>
<path id="Vector_43" d="M90.108 82.1764C88.1442 77.4376 82.7106 75.188 77.9718 77.1519C73.2329 79.1157 70.9834 84.5493 72.9472 89.2882L89.9305 130.269C91.8943 135.008 97.3279 137.258 102.067 135.294C106.806 133.33 109.055 127.896 107.091 123.157L90.108 82.1764Z" fill="#F17068"/>
<path id="Vector_44" d="M129.027 122.819C128.89 122.943 128.742 123.054 128.586 123.152L125.813 124.91C125.658 125.009 125.495 125.095 125.325 125.168C124.563 125.497 123.708 125.544 122.914 125.299C122.12 125.055 121.44 124.535 120.995 123.834L112.358 110.232C111.914 109.531 111.733 108.694 111.85 107.872C111.966 107.05 112.371 106.296 112.993 105.746C113.131 105.622 113.279 105.511 113.437 105.413L116.209 103.655C116.365 103.557 116.528 103.47 116.697 103.398C117.459 103.069 118.314 103.023 119.107 103.267C119.9 103.512 120.58 104.031 121.025 104.731L129.664 118.336C130.109 119.037 130.289 119.874 130.172 120.695C130.055 121.517 129.649 122.27 129.027 122.819Z" fill="#0D2D4B"/>
<path id="Vector_45" d="M129.027 122.819C128.89 122.943 128.742 123.054 128.586 123.152L125.813 124.91C125.658 125.009 125.495 125.095 125.325 125.168C125.296 125.133 125.27 125.096 125.248 125.057L113.051 105.876C113.029 105.837 113.004 105.799 112.985 105.76C113.122 105.636 113.271 105.525 113.428 105.427L116.201 103.669C116.356 103.57 116.519 103.484 116.689 103.411C116.714 103.445 116.739 103.483 116.764 103.522L128.963 122.719C128.982 122.742 129.004 122.789 129.027 122.819Z" fill="#34B5FA"/>
<path id="Vector_46" d="M73.1738 89.3989L87.8682 125.24L70.4761 125.109C70.4761 125.109 82.5283 115.952 73.1738 89.3989Z" fill="#0D2D4B"/>
<path id="Vector_47" d="M112.028 109.378L103.231 113.778L99.5266 104.734C99.5266 104.734 103.527 111.208 112.028 109.378Z" fill="#0D2D4B"/>
<path id="Vector_48" d="M122.256 124.943L118.203 126.97L112.028 109.378L122.256 124.943Z" fill="#0D2D4B"/>
<g id="rightPersonArm">
<path id="Vector_49" d="M206.101 44.3044C203.415 39.9344 197.695 38.5695 193.325 41.2558C188.955 43.9422 187.59 49.6624 190.276 54.0324L213.507 91.8238C216.194 96.1937 221.914 97.5586 226.284 94.8723C230.654 92.1859 232.019 86.4657 229.332 82.0957L206.101 44.3044Z" fill="#F17068"/>
<path id="Vector_50" d="M214.953 93.3193L226.615 77.3605L221.624 69.7L204.035 76.4206L213.866 92.5291C213.866 92.5291 214.659 93.469 214.953 93.3193Z" fill="#0D2D4B"/>
<path id="Vector_51" d="M166.916 14.349L189.532 52.5103C190.147 53.572 190.967 54.5012 191.944 55.2442C192.92 55.9873 194.034 56.5294 195.222 56.8393C196.409 57.1492 197.646 57.2207 198.861 57.0498C200.077 56.8788 201.246 56.4687 202.302 55.8432C203.358 55.2177 204.279 54.3891 205.013 53.4054C205.746 52.4217 206.278 51.3024 206.576 50.1121C206.875 48.9218 206.935 47.6842 206.752 46.4706C206.57 45.2571 206.148 44.0918 205.513 43.042L191.046 18.6298C191.11 18.3572 191.142 18.0781 191.143 17.798L191.12 5.04434C191.12 4.08841 190.741 3.17164 190.065 2.4957C189.389 1.81976 188.472 1.44003 187.516 1.44003C187.27 1.44076 187.025 1.46583 186.784 1.51488C185.972 1.68462 185.244 2.12923 184.721 2.77372C184.199 3.41821 183.915 4.22313 183.917 5.05265V6.6025L182.9 4.8863C182.278 3.83698 181.456 2.92041 180.479 2.18894C179.503 1.45748 178.393 0.92543 177.211 0.623178C176.029 0.320927 174.8 0.254392 173.592 0.427371C172.385 0.60035 171.223 1.00946 170.174 1.63133C168.055 2.88726 166.521 4.93361 165.911 7.32019C165.609 8.50191 165.542 9.73159 165.715 10.939C165.888 12.1465 166.297 13.308 166.919 14.3573L166.916 14.349Z" fill="#F17068"/>
<path id="Vector_52" d="M196.455 23.3347C196.394 23.161 196.318 22.9931 196.228 22.8329L194.628 19.9716C194.539 19.81 194.437 19.656 194.323 19.5114C193.809 18.8609 193.081 18.4144 192.268 18.2519C191.455 18.0893 190.611 18.2213 189.887 18.6242L175.816 26.4843C175.088 26.8887 174.529 27.5397 174.239 28.32C173.948 29.1002 173.946 29.9585 174.233 30.7402C174.296 30.9146 174.374 31.0834 174.466 31.2448L176.063 34.1061C176.153 34.2663 176.256 34.4192 176.371 34.5635C176.885 35.2135 177.613 35.6595 178.426 35.8215C179.239 35.9835 180.083 35.8511 180.807 35.448L194.877 27.5878C195.605 27.1839 196.163 26.5331 196.453 25.7531C196.742 24.973 196.743 24.1152 196.455 23.3347Z" fill="#0D2D4B"/>
<path id="Vector_53" d="M196.455 23.3348C196.394 23.1611 196.318 22.9932 196.228 22.833L194.628 19.9717C194.539 19.8101 194.437 19.6561 194.323 19.5115C194.278 19.5281 194.242 19.5503 194.201 19.5697L174.349 30.6599L174.233 30.7292C174.296 30.9036 174.374 31.0724 174.466 31.2338L176.063 34.0951C176.153 34.2553 176.256 34.4082 176.371 34.5525C176.411 34.5344 176.451 34.514 176.49 34.4915L196.341 23.4014L196.455 23.3348Z" fill="#34B5FA"/>
</g>
<path id="Vector_54" d="M213.669 86.0775L218.826 118.275C219.034 119.568 219.615 120.772 220.498 121.738C221.382 122.705 222.529 123.392 223.798 123.715L224.521 128.22C224.614 128.799 224.819 129.354 225.126 129.853C225.433 130.353 225.836 130.787 226.31 131.13C226.785 131.474 227.323 131.721 227.893 131.857C228.464 131.992 229.055 132.014 229.634 131.922L263.525 126.493C264.104 126.4 264.659 126.194 265.159 125.887C265.658 125.58 266.092 125.177 266.436 124.702C266.779 124.227 267.026 123.689 267.162 123.118C267.298 122.548 267.32 121.956 267.227 121.378L266.572 117.285C268.022 116.742 269.239 115.715 270.017 114.376C270.796 113.038 271.087 111.472 270.842 109.944L265.685 77.746C265.404 75.989 264.436 74.4156 262.995 73.3721C261.554 72.3286 259.757 71.9003 258 72.1815L219.24 78.392C217.482 78.6727 215.908 79.6401 214.863 81.0813C213.818 82.5226 213.389 84.3197 213.669 86.0775Z" fill="#0F69A5"/>
<path id="Vector_55" d="M242.388 193.068C243.673 198.261 248.925 201.429 254.118 200.144C259.312 198.859 262.48 193.607 261.195 188.413L248.323 136.4C247.038 131.207 241.786 128.038 236.592 129.324C231.399 130.609 228.23 135.861 229.516 141.054L242.388 193.068Z" fill="#D16562"/>
<path id="Vector_56" d="M254.003 239.039C255.316 244.225 260.585 247.365 265.771 246.052C270.958 244.738 274.098 239.469 272.784 234.283L261.005 187.767C259.692 182.58 254.423 179.44 249.236 180.754C244.05 182.067 240.91 187.336 242.224 192.523L254.003 239.039Z" fill="#D16562"/>
<path id="Vector_57" d="M268.523 219.933L248.853 225.465L256.375 252.209L276.045 246.677L268.523 219.933Z" fill="#FFEDCC"/>
<path id="Vector_58" d="M243.73 275.556L282.847 260.257L275.916 241.808L265.463 245.89L263.667 239.563L252.657 242.69L254.756 250.085C251.826 251.32 249.231 253.233 247.184 255.666C245.137 258.099 243.697 260.982 242.981 264.08C242.892 264.463 242.812 264.848 242.748 265.236C242.149 268.702 242.488 272.265 243.73 275.556Z" fill="#FFD37C"/>
<path id="Vector_59" d="M261.743 247.351L255.222 249.904C252.183 251.096 249.48 253.011 247.347 255.482C245.214 257.954 243.715 260.908 242.981 264.089C258.837 263.116 262.026 248.285 262.026 248.285C261.951 247.968 261.857 247.656 261.743 247.351Z" fill="#EA636A"/>
<path id="Vector_60" d="M265.452 245.89L275.467 241.969L271.383 227.641C271.383 227.641 270.426 242.626 265.452 245.89Z" fill="#0D2D4B"/>
<path id="Vector_61" d="M269.306 220.521L250.63 225.761C250.63 225.761 266.434 215.613 266.988 211.53L269.306 220.521Z" fill="#0D2D4B"/>
<path id="Vector_62" d="M289.54 174.164L274.94 161.26L266.539 170.687C266.539 170.687 279.387 165.078 289.54 174.164Z" fill="#0D2D4B"/>
<path id="Vector_63" d="M245.64 155.48L233.807 158.344C233.807 158.344 244.897 159.53 246.577 163.387L245.64 155.48Z" fill="#0D2D4B"/>
<path id="Vector_64" d="M243.192 277.81L284.561 261.627L282.648 256.542L241.279 272.722L243.192 277.81Z" fill="#EA636A"/>
<g id="rightPersonLeg">
<path id="Vector_65" d="M249.406 192.97C249.936 198.294 254.682 202.179 260.006 201.649C265.33 201.118 269.215 196.373 268.685 191.049L263.928 143.301C263.397 137.977 258.651 134.091 253.328 134.622C248.004 135.152 244.118 139.898 244.649 145.222L249.406 192.97Z" fill="#F17068"/>
<path id="Vector_66" d="M252.074 187.156C248.528 191.162 248.902 197.284 252.908 200.83C256.915 204.376 263.037 204.003 266.583 199.996L298.384 164.064C301.93 160.057 301.557 153.935 297.55 150.389C293.544 146.843 287.422 147.217 283.876 151.223L252.074 187.156Z" fill="#F17068"/>
<path id="Vector_67" d="M274.771 161.118L289.518 174.17L307.981 153.308L293.234 140.256L274.771 161.118Z" fill="#FFEDCC"/>
<path id="Vector_68" d="M298.257 150.703L293.912 155.638L300.655 161.574L305.574 155.984L307.174 157.14C309.822 159.05 312.895 160.285 316.128 160.74C319.361 161.195 322.655 160.855 325.727 159.749C326.099 159.616 326.465 159.472 326.836 159.32C330.072 157.944 332.882 155.731 334.977 152.907L300.927 128.312L289.155 144.137L298.257 150.703Z" fill="#FFD37C"/>
<path id="Vector_69" d="M298.257 150.736L289.518 144.415L283.488 151.282C283.488 151.282 293.669 147.525 298.257 150.736Z" fill="#0D2D4B"/>
<path id="Vector_70" d="M265.389 157.845L246.108 159.763C246.108 159.763 263.725 160.964 265.949 163.584L265.389 157.845Z" fill="#0D2D4B"/>
<path id="Vector_71" d="M337.136 152.142L301.127 126.13L297.885 130.494L333.895 156.503L337.136 152.142Z" fill="#EA636A"/>
</g>
<path id="Vector_72" d="M223.723 123.357V133.616C223.719 135.375 224.292 137.087 225.355 138.489C226.418 139.892 227.911 140.907 229.606 141.379L233.806 158.366L245.676 155.43L246.108 159.786L265.391 157.867L263.661 140.505C264.846 139.786 265.825 138.772 266.503 137.562C267.181 136.353 267.534 134.988 267.529 133.602V123.343L223.723 123.357Z" fill="#34B5FA"/>
<path id="Vector_73" d="M244.353 141.745L229.678 141.595C229.678 141.595 242.923 149.106 246.677 163.041L244.353 141.745Z" fill="#0D2D4B"/>
<path id="Vector_74" d="M230.466 68.8406L232.334 69.2953L230.981 74.8571C230.511 76.7862 230.827 78.823 231.859 80.5193C232.891 82.2156 234.554 83.4326 236.483 83.9025C238.413 84.3724 240.449 84.0566 242.146 83.0248C243.842 81.993 245.059 80.3295 245.529 78.4004L248.656 65.5496L248.95 64.3491C249.122 64.4218 249.299 64.4802 249.48 64.5238C250.404 64.7363 251.374 64.5763 252.181 64.0784C252.987 63.5805 253.565 62.7849 253.79 61.8638C254.014 60.9428 253.866 59.9704 253.379 59.1575C252.891 58.3445 252.103 57.7563 251.185 57.5203C251.003 57.4761 250.817 57.4464 250.63 57.4316L251.401 54.343C251.872 52.4095 251.555 50.3683 250.521 48.6682C249.487 46.968 247.82 45.7482 245.886 45.2768L236.762 43.0588C235.805 42.8254 234.811 42.7828 233.837 42.9335C232.864 43.0842 231.929 43.4252 231.087 43.937C230.245 44.4488 229.513 45.1214 228.931 45.9165C228.349 46.7115 227.929 47.6134 227.696 48.5706L224.965 59.78C224.495 61.7108 224.81 63.7493 225.841 65.448C226.873 67.1467 228.536 68.3668 230.466 68.8406Z" fill="#F17068"/>
<path id="Vector_75" d="M231.32 73.4678C231.32 73.4678 235.539 72.2174 237.696 70.6038L232.329 69.2952L231.32 73.4678Z" fill="#0D2D4B"/>
<path id="Vector_76" d="M233.759 58.0693C234.831 58.0693 235.7 57.2004 235.7 56.1285C235.7 55.0567 234.831 54.1877 233.759 54.1877C232.688 54.1877 231.819 55.0567 231.819 56.1285C231.819 57.2004 232.688 58.0693 233.759 58.0693Z" fill="#0F3F70"/>
<path id="Vector_77" d="M228.777 56.855C229.849 56.855 230.718 55.986 230.718 54.9142C230.718 53.8423 229.849 52.9734 228.777 52.9734C227.705 52.9734 226.836 53.8423 226.836 54.9142C226.836 55.986 227.705 56.855 228.777 56.855Z" fill="#0F3F70"/>
<path id="Vector_78" d="M251.678 60.2068C251.678 60.2068 252.493 61.3796 249.363 60.8417" stroke="#0F3F70" stroke-miterlimit="10"/>
<path id="Vector_79" d="M251.124 63.0681C251.124 63.0681 251.786 61.5155 250.336 61.022" stroke="#0F3F70" stroke-miterlimit="10"/>
<path id="Vector_80" d="M231.625 124.466L231.541 130.843C231.534 131.386 231.635 131.926 231.838 132.43C232.041 132.935 232.342 133.393 232.723 133.78C233.105 134.167 233.56 134.474 234.062 134.684C234.563 134.894 235.101 135.002 235.645 135.002V135.002" stroke="#0D2D4B" stroke-miterlimit="10"/>
<path id="Vector_81" d="M301.484 153.043L307.163 157.141C309.811 159.05 312.884 160.286 316.117 160.74C319.35 161.195 322.645 160.855 325.716 159.75C316.309 146.946 302.119 152.297 302.119 152.297C301.892 152.532 301.68 152.781 301.484 153.043Z" fill="#EA636A"/>
<path id="Vector_82" d="M259.836 156.076L261.488 155.883L258.026 126.141L256.373 126.333L259.836 156.076Z" fill="#FFD37C"/>
<path id="Vector_83" d="M255.398 156.076L257.05 155.883L253.588 126.141L251.935 126.333L255.398 156.076Z" fill="#FFD37C"/>
<path id="Vector_84" d="M195.135 113.029L234.832 132.831C237.038 133.93 239.591 134.108 241.928 133.326C244.265 132.543 246.196 130.864 247.295 128.658C248.394 126.452 248.572 123.9 247.79 121.563C247.007 119.226 245.328 117.295 243.122 116.196L217.729 103.531C217.634 103.264 217.509 103.009 217.354 102.771L210.423 92.0663C210.166 91.6681 209.832 91.3245 209.442 91.0552C209.052 90.786 208.613 90.5964 208.149 90.4972C207.685 90.398 207.207 90.3913 206.741 90.4774C206.275 90.5635 205.83 90.7407 205.432 90.9988C205.226 91.1331 205.034 91.2873 204.858 91.4591C204.269 92.0418 203.898 92.81 203.808 93.6342C203.719 94.4584 203.917 95.2883 204.368 95.9839L205.199 97.2898L203.436 96.4081C201.235 95.3355 198.7 95.1753 196.381 95.9624C194.063 96.7494 192.149 98.4201 191.056 100.611C189.963 102.802 189.779 105.336 190.545 107.661C191.31 109.987 192.963 111.916 195.143 113.029H195.135Z" fill="#F17068"/>
<path id="Vector_85" d="M230.498 121.233C228.534 125.971 230.784 131.405 235.523 133.369C240.261 135.333 245.695 133.083 247.659 128.344L264.642 87.3634C266.606 82.6246 264.356 77.191 259.618 75.2272C254.879 73.2633 249.445 75.5129 247.481 80.2517L230.498 121.233Z" fill="#F17068"/>
<path id="Vector_86" d="M208.579 120.892C208.715 121.017 208.863 121.128 209.02 121.225L211.792 122.983C211.948 123.082 212.111 123.168 212.28 123.241C213.043 123.57 213.898 123.617 214.692 123.372C215.485 123.128 216.166 122.608 216.611 121.907L225.253 108.302C225.697 107.601 225.877 106.765 225.76 105.944C225.644 105.122 225.239 104.369 224.618 103.819C224.48 103.696 224.332 103.585 224.175 103.486L221.402 101.728C221.246 101.63 221.083 101.544 220.914 101.471C220.152 101.142 219.298 101.095 218.504 101.339C217.711 101.584 217.031 102.103 216.586 102.804L207.947 116.412C207.502 117.112 207.321 117.947 207.437 118.769C207.553 119.59 207.958 120.343 208.579 120.892Z" fill="#0D2D4B"/>
<path id="Vector_87" d="M208.579 120.892C208.715 121.017 208.863 121.128 209.02 121.225L211.792 122.983C211.948 123.082 212.111 123.168 212.28 123.241C212.309 123.205 212.334 123.168 212.358 123.13L224.557 103.933C224.582 103.896 224.606 103.858 224.627 103.819C224.488 103.696 224.34 103.585 224.183 103.486L221.41 101.729C221.255 101.63 221.092 101.544 220.922 101.471C220.895 101.506 220.87 101.543 220.848 101.582L208.648 120.779C208.623 120.815 208.601 120.848 208.579 120.892Z" fill="#34B5FA"/>
<path id="Vector_88" d="M264.432 87.4722L249.738 123.313L267.13 123.183C267.13 123.183 255.077 114.025 264.432 87.4722Z" fill="#0D2D4B"/>
<path id="Vector_89" d="M225.578 107.451L234.372 111.848L238.093 102.807C238.093 102.807 234.078 109.281 225.578 107.451Z" fill="#0D2D4B"/>
<path id="Vector_90" d="M215.35 123.016L219.403 125.043L225.578 107.451L215.35 123.016Z" fill="#0D2D4B"/>
<path id="Vector_91" d="M251.554 55.7873L253.342 48.4096C253.401 48.176 253.413 47.9331 253.377 47.6948C253.341 47.4566 253.259 47.2278 253.134 47.0216C253.01 46.8153 252.846 46.6358 252.652 46.4934C252.457 46.3509 252.237 46.2483 252.003 46.1916C251.77 46.135 251.55 46.0331 251.357 45.8917C251.163 45.7503 251 45.5721 250.875 45.3675C250.75 45.1628 250.667 44.9355 250.631 44.6987C250.594 44.4619 250.604 44.2202 250.661 43.9874L250.719 43.7489C250.778 43.5152 250.79 43.272 250.754 43.0337C250.718 42.7953 250.635 42.5663 250.511 42.3601C250.386 42.1539 250.221 41.9744 250.027 41.8321C249.832 41.6897 249.611 41.5874 249.377 41.5309L239.329 39.0827C238.412 38.8609 238.054 37.4858 238.193 36.5514C238.78 32.5867 234.588 28.1423 228.966 33.3048C222.511 39.2436 224.197 47.8856 231.231 46.613C231.317 46.613 233.33 46.8902 233.416 46.8902L242.155 47.4447C242.437 47.4333 242.718 47.4876 242.976 47.6033C243.233 47.719 243.461 47.8929 243.64 48.1115C243.819 48.33 243.945 48.5872 244.007 48.8626C244.07 49.1381 244.068 49.4243 244.001 49.6988L243.724 50.7773C243.665 51.0111 243.653 51.2542 243.689 51.4926C243.725 51.731 243.808 51.9599 243.932 52.1662C244.057 52.3724 244.222 52.5519 244.416 52.6942C244.611 52.8365 244.831 52.9389 245.066 52.9954L245.776 53.1673C246.01 53.2241 246.23 53.3266 246.424 53.4691C246.619 53.6115 246.783 53.7911 246.907 53.9973C247.032 54.2035 247.114 54.4323 247.15 54.6705C247.185 54.9088 247.173 55.1517 247.115 55.3853L246.252 58.9314C246.194 59.1652 246.182 59.4083 246.218 59.6467C246.253 59.885 246.336 60.114 246.461 60.3202C246.586 60.5265 246.75 60.7059 246.945 60.8483C247.139 60.9906 247.36 61.0929 247.594 61.1494L247.966 61.2409C248.412 61.349 248.882 61.2852 249.284 61.0623C249.685 60.8393 249.987 60.4735 250.131 60.0376L251.493 55.9121C251.529 55.8816 251.542 55.8345 251.554 55.7873Z" fill="#FFD37C"/>
<path id="Vector_92" d="M243.064 48.7563L227.244 50.4974L228.846 43.8655L243.064 48.7563Z" fill="#0D2D4B"/>
<path id="Vector_93" d="M223.102 45.1132C223.023 45.434 222.999 45.766 223.032 46.0947C223.078 46.5268 223.219 46.9435 223.446 47.3146C223.643 47.6419 223.904 47.9268 224.212 48.1528C224.52 48.3789 224.871 48.5416 225.242 48.6316L250.847 54.8615C251.431 55.0044 252.046 54.9622 252.606 54.7407C253.166 54.5192 253.643 54.1293 253.971 53.6249C254.272 53.1652 254.436 52.6299 254.444 52.0809C254.453 51.5318 254.307 50.9915 254.021 50.5224C253.823 50.1953 253.563 49.9106 253.254 49.6846C252.946 49.4586 252.596 49.2957 252.225 49.2055L226.634 42.97C226.097 42.8376 225.533 42.8612 225.009 43.038C224.485 43.2148 224.023 43.5375 223.676 43.9681C223.4 44.3011 223.203 44.6928 223.102 45.1132Z" fill="#0D2D4B"/>
<path id="Vector_94" d="M223.102 45.1131C223.023 45.4339 222.999 45.7658 223.032 46.0946L253.957 53.6276C254.379 52.9836 254.527 52.1989 254.37 51.4456L223.676 43.968C223.4 44.301 223.203 44.6927 223.102 45.1131Z" fill="#34B5FA"/>
</g>
</svg>
