<svg width="124" height="34" viewBox="0 0 124 34" fill="none" xmlns="http://www.w3.org/2000/svg">
<path d="M16.06 0.587295L8.86469 2.13795C8.60677 2.19295 8.37549 2.3347 8.20941 2.53956C8.04333 2.74441 7.95248 3.00001 7.95201 3.26373V15.6468C7.42702 15.4645 6.8751 15.3717 6.31934 15.3724C3.80626 15.3724 1.76892 17.2177 1.76892 19.4941C1.76892 21.7704 3.80626 23.6158 6.31941 23.6158C8.0465 23.6158 9.77393 22.677 10.4919 21.0764C11.1159 19.6854 10.8698 18.0132 10.8698 16.5213V6.62223L20.7789 4.32072C20.7448 1.87246 18.4653 0.0689939 16.0601 0.587361L16.06 0.587295Z" fill="#FACD66"/>
<path d="M16.0565 11.998V25.2556C16.0563 25.2872 16.0488 25.3184 16.0345 25.3466C16.0202 25.3748 15.9996 25.3993 15.9742 25.4182C15.9488 25.437 15.9194 25.4497 15.8882 25.4552C15.8571 25.4607 15.8251 25.4589 15.7948 25.4499C15.349 25.3225 14.8875 25.2581 14.4238 25.2585C11.9107 25.2585 9.87341 27.1039 9.87341 29.3802C9.87341 31.6566 11.9107 33.502 14.4238 33.502C16.1509 33.502 17.8784 32.5632 18.5964 30.9626C19.2204 29.5716 18.9743 27.8993 18.9743 26.4075V15.6245C18.9744 15.5481 19.0004 15.474 19.048 15.4143C19.0957 15.3545 19.1621 15.3127 19.2366 15.2956L28.8834 13.055C28.9331 13.0433 28.9848 13.043 29.0346 13.0541C29.0844 13.0651 29.1311 13.0873 29.1712 13.1189C29.2112 13.1506 29.2436 13.1908 29.266 13.2367C29.2883 13.2826 29.3 13.3329 29.3002 13.384V24.2421C29.3 24.2737 29.2925 24.3048 29.2782 24.3331C29.2639 24.3613 29.2433 24.3858 29.2179 24.4046C29.1925 24.4235 29.1631 24.4362 29.1319 24.4417C29.1008 24.4472 29.0688 24.4454 29.0385 24.4364C28.5926 24.309 28.1312 24.2446 27.6675 24.245C25.1544 24.245 23.1171 26.0904 23.1171 28.3667C23.1171 30.6431 25.1544 32.4884 27.6674 32.4884C29.1883 32.4884 30.7005 31.7011 31.5534 30.413C32.3799 29.1648 32.2183 27.8537 32.2179 26.4434C32.2171 23.9282 32.2171 21.413 32.2179 18.8979V8.84266C32.2174 8.69091 32.1829 8.54119 32.1171 8.40447C32.0512 8.26776 31.9556 8.14751 31.8372 8.05253C31.7189 7.95755 31.5808 7.89026 31.433 7.85557C31.2853 7.82089 31.1317 7.81969 30.9834 7.85208L16.9692 10.8722C16.7113 10.9272 16.48 11.069 16.3139 11.2738C16.1478 11.4787 16.057 11.7343 16.0565 11.998V11.998Z" fill="#A4C7C6"/>
<path d="M27.308 13.384C27.3078 13.3329 27.2961 13.2826 27.2738 13.2367C27.2515 13.1908 27.2191 13.1506 27.179 13.1189C27.1389 13.0873 27.0923 13.0651 27.0424 13.0541C26.9926 13.043 26.9409 13.0433 26.8912 13.055L17.2444 15.2956C17.17 15.3127 17.1035 15.3545 17.0559 15.4143C17.0082 15.474 16.9822 15.5481 16.9821 15.6245V26.4075C16.9821 27.8993 17.2282 29.5716 16.6043 30.9626C16.0241 32.256 14.7846 33.1169 13.4189 33.3998C13.7496 33.4676 14.0863 33.5018 14.4239 33.502C16.151 33.502 17.8785 32.5632 18.5964 30.9626C19.2204 29.5716 18.9743 27.8993 18.9743 26.4075V15.6245C18.9744 15.5481 19.0004 15.474 19.0481 15.4143C19.0957 15.3545 19.1621 15.3127 19.2366 15.2956L27.308 13.4209V13.384ZM14.0623 25.2727C13.8491 25.2878 13.637 25.3165 13.4275 25.3588C13.5545 25.3847 13.6799 25.4147 13.8026 25.4499C13.8315 25.4584 13.8619 25.4604 13.8916 25.4557C13.9213 25.451 13.9496 25.4398 13.9745 25.4228C13.9993 25.4058 14.0201 25.3836 14.0353 25.3576C14.0505 25.3316 14.0597 25.3026 14.0623 25.2726V25.2727ZM32.2179 26.4434C32.2171 23.9282 32.2171 21.413 32.2179 18.8979V8.84266C32.2174 8.69091 32.183 8.54119 32.1171 8.40447C32.0512 8.26776 31.9556 8.14751 31.8373 8.05253C31.7189 7.95755 31.5808 7.89026 31.4331 7.85557C31.2853 7.82089 31.1317 7.81969 30.9835 7.85208L29.8856 8.08868C29.9926 8.18298 30.0783 8.29901 30.1369 8.42902C30.1956 8.55902 30.2258 8.70004 30.2257 8.84266V26.4434C30.2262 27.8536 30.3877 29.1648 29.5612 30.413C28.8792 31.4207 27.8344 32.1263 26.6449 32.3826C26.9812 32.4528 27.3239 32.4883 27.6675 32.4884C29.1882 32.4884 30.7005 31.7011 31.5534 30.413C32.3799 29.1648 32.2184 27.8537 32.2179 26.4434V26.4434ZM27.306 24.2591C27.0927 24.2742 26.8807 24.303 26.6712 24.3453C26.7982 24.3712 26.9235 24.4012 27.0463 24.4364C27.0752 24.4449 27.1056 24.4469 27.1353 24.4422C27.165 24.4375 27.1933 24.4263 27.2181 24.4093C27.243 24.3923 27.2637 24.3701 27.2789 24.3441C27.2941 24.3181 27.3033 24.2891 27.306 24.2591V24.2591Z" fill="#9CBCBB"/>
<path d="M52.177 21.997C52.313 21.997 52.432 22.048 52.534 22.15C52.636 22.2407 52.687 22.354 52.687 22.49C52.687 22.6373 52.636 22.762 52.534 22.864C52.432 22.9547 52.313 23 52.177 23H46.108C45.9607 23 45.836 22.949 45.734 22.847C45.6433 22.745 45.598 22.626 45.598 22.49V11.61C45.598 11.474 45.649 11.355 45.751 11.253C45.853 11.151 45.9833 11.1 46.142 11.1C46.278 11.1 46.397 11.151 46.499 11.253C46.6123 11.355 46.669 11.474 46.669 11.61V22.286L46.346 21.997H52.177ZM62.4829 18.648C62.4829 19.5093 62.2959 20.2857 61.9219 20.977C61.5479 21.657 61.0379 22.1953 60.3919 22.592C59.7459 22.9773 59.0092 23.17 58.1819 23.17C57.3772 23.17 56.6462 22.9773 55.9889 22.592C55.3429 22.1953 54.8272 21.657 54.4419 20.977C54.0679 20.2857 53.8809 19.5093 53.8809 18.648C53.8809 17.7753 54.0679 16.999 54.4419 16.319C54.8272 15.639 55.3429 15.1007 55.9889 14.704C56.6462 14.3073 57.3772 14.109 58.1819 14.109C59.0092 14.109 59.7459 14.3073 60.3919 14.704C61.0379 15.1007 61.5479 15.639 61.9219 16.319C62.2959 16.999 62.4829 17.7753 62.4829 18.648ZM61.4629 18.648C61.4629 17.9567 61.3212 17.3447 61.0379 16.812C60.7545 16.268 60.3635 15.843 59.8649 15.537C59.3775 15.2197 58.8165 15.061 58.1819 15.061C57.5699 15.061 57.0145 15.2197 56.5159 15.537C56.0172 15.843 55.6205 16.268 55.3259 16.812C55.0425 17.3447 54.9009 17.9567 54.9009 18.648C54.9009 19.3393 55.0425 19.9513 55.3259 20.484C55.6205 21.0167 56.0172 21.4417 56.5159 21.759C57.0145 22.065 57.5699 22.218 58.1819 22.218C58.8165 22.218 59.3775 22.065 59.8649 21.759C60.3635 21.4417 60.7545 21.0167 61.0379 20.484C61.3212 19.9513 61.4629 19.3393 61.4629 18.648ZM67.7956 10.488C67.9656 10.488 68.147 10.505 68.3396 10.539C68.5436 10.573 68.7193 10.6353 68.8666 10.726C69.014 10.8053 69.0876 10.93 69.0876 11.1C69.0876 11.2247 69.0423 11.338 68.9516 11.44C68.861 11.5307 68.759 11.576 68.6456 11.576C68.5323 11.576 68.3906 11.5477 68.2206 11.491C68.0506 11.423 67.8693 11.389 67.6766 11.389C67.4386 11.389 67.2346 11.4457 67.0646 11.559C66.8946 11.661 66.7643 11.814 66.6736 12.018C66.583 12.2107 66.5376 12.4487 66.5376 12.732V22.49C66.5376 22.626 66.4866 22.745 66.3846 22.847C66.294 22.949 66.175 23 66.0276 23C65.8803 23 65.7556 22.949 65.6536 22.847C65.563 22.745 65.5176 22.626 65.5176 22.49V12.732C65.5176 12.0067 65.7273 11.4513 66.1466 11.066C66.5773 10.6807 67.127 10.488 67.7956 10.488ZM68.4416 14.483C68.5776 14.483 68.691 14.5283 68.7816 14.619C68.8723 14.7097 68.9176 14.823 68.9176 14.959C68.9176 15.095 68.8723 15.2083 68.7816 15.299C68.691 15.3897 68.5776 15.435 68.4416 15.435H64.2766C64.152 15.435 64.0386 15.3897 63.9366 15.299C63.846 15.197 63.8006 15.0837 63.8006 14.959C63.8006 14.8117 63.846 14.6983 63.9366 14.619C64.0386 14.5283 64.152 14.483 64.2766 14.483H68.4416ZM71.7566 22.49C71.7566 22.626 71.7056 22.745 71.6036 22.847C71.5016 22.949 71.3826 23 71.2466 23C71.0993 23 70.9746 22.949 70.8726 22.847C70.782 22.745 70.7366 22.626 70.7366 22.49V14.67C70.7366 14.534 70.782 14.415 70.8726 14.313C70.9746 14.211 71.0993 14.16 71.2466 14.16C71.394 14.16 71.513 14.211 71.6036 14.313C71.7056 14.415 71.7566 14.534 71.7566 14.67V22.49ZM71.2466 13.021C71.0086 13.021 70.8273 12.97 70.7026 12.868C70.5893 12.7547 70.5326 12.596 70.5326 12.392V12.222C70.5326 12.018 70.595 11.865 70.7196 11.763C70.8556 11.6497 71.037 11.593 71.2636 11.593C71.479 11.593 71.6433 11.6497 71.7566 11.763C71.8813 11.865 71.9436 12.018 71.9436 12.222V12.392C71.9436 12.596 71.8813 12.7547 71.7566 12.868C71.6433 12.97 71.4733 13.021 71.2466 13.021ZM79.8772 23C79.7072 23 79.5655 22.949 79.4522 22.847C79.3502 22.745 79.2992 22.626 79.2992 22.49V11.61C79.2992 11.474 79.3502 11.355 79.4522 11.253C79.5542 11.151 79.6732 11.1 79.8092 11.1H84.3992C85.0452 11.1 85.6232 11.2417 86.1332 11.525C86.6432 11.797 87.0398 12.1767 87.3232 12.664C87.6178 13.1513 87.7652 13.701 87.7652 14.313C87.7652 14.8117 87.6745 15.2707 87.4932 15.69C87.3118 16.1093 87.0568 16.4663 86.7282 16.761C86.3995 17.0443 86.0312 17.254 85.6232 17.39L85.0282 17.203C85.4475 17.237 85.8385 17.373 86.2012 17.611C86.5638 17.8377 86.8528 18.155 87.0682 18.563C87.2948 18.9597 87.4138 19.4413 87.4252 20.008C87.4365 20.4953 87.4592 20.875 87.4932 21.147C87.5385 21.419 87.6008 21.623 87.6802 21.759C87.7595 21.895 87.8615 22.0027 87.9862 22.082C88.0995 22.15 88.1732 22.2463 88.2072 22.371C88.2525 22.4957 88.2412 22.6147 88.1732 22.728C88.1278 22.8187 88.0598 22.8867 87.9692 22.932C87.8898 22.966 87.8048 22.983 87.7142 22.983C87.6235 22.983 87.5328 22.9603 87.4422 22.915C87.2835 22.8243 87.1192 22.6827 86.9492 22.49C86.7905 22.2973 86.6545 22.014 86.5412 21.64C86.4392 21.266 86.3882 20.7447 86.3882 20.076C86.3882 19.634 86.3145 19.2713 86.1672 18.988C86.0312 18.7047 85.8498 18.4893 85.6232 18.342C85.4078 18.1833 85.1642 18.0757 84.8922 18.019C84.6315 17.951 84.3822 17.917 84.1442 17.917H80.1832L80.3702 17.679V22.49C80.3702 22.626 80.3248 22.745 80.2342 22.847C80.1435 22.949 80.0245 23 79.8772 23ZM80.1832 16.982H84.4502C84.8355 16.948 85.1982 16.8233 85.5382 16.608C85.8782 16.3813 86.1502 16.0753 86.3542 15.69C86.5695 15.3047 86.6772 14.857 86.6772 14.347C86.6772 13.701 86.4562 13.1683 86.0142 12.749C85.5835 12.3183 85.0168 12.103 84.3142 12.103H80.2512L80.3702 11.865V17.22L80.1832 16.982ZM97.6223 14.313C97.7696 14.313 97.8886 14.364 97.9793 14.466C98.0813 14.568 98.1322 14.6927 98.1322 14.84V22.49C98.1322 22.626 98.0813 22.745 97.9793 22.847C97.8773 22.949 97.7583 23 97.6223 23C97.4749 23 97.3503 22.949 97.2483 22.847C97.1576 22.745 97.1123 22.626 97.1123 22.49V20.467L97.4013 20.331C97.4013 20.6483 97.3106 20.9713 97.1293 21.3C96.9593 21.6287 96.7213 21.9347 96.4153 22.218C96.1093 22.5013 95.7466 22.7337 95.3273 22.915C94.9193 23.085 94.4773 23.17 94.0013 23.17C93.2306 23.17 92.5393 22.9717 91.9273 22.575C91.3266 22.1783 90.8506 21.6343 90.4993 20.943C90.1593 20.2517 89.9893 19.4753 89.9893 18.614C89.9893 17.73 90.1649 16.9537 90.5163 16.285C90.8676 15.605 91.3436 15.0723 91.9443 14.687C92.5449 14.3017 93.2249 14.109 93.9843 14.109C94.4716 14.109 94.9249 14.194 95.3443 14.364C95.7749 14.534 96.1489 14.7663 96.4663 15.061C96.7836 15.3557 97.0273 15.6957 97.1973 16.081C97.3786 16.455 97.4693 16.846 97.4693 17.254L97.1123 16.999V14.84C97.1123 14.6927 97.1576 14.568 97.2483 14.466C97.3503 14.364 97.4749 14.313 97.6223 14.313ZM94.0863 22.218C94.6869 22.218 95.2196 22.065 95.6843 21.759C96.1489 21.4417 96.5116 21.011 96.7723 20.467C97.0443 19.9117 97.1803 19.294 97.1803 18.614C97.1803 17.9453 97.0443 17.3447 96.7723 16.812C96.5116 16.2793 96.1489 15.8543 95.6843 15.537C95.2196 15.2197 94.6869 15.061 94.0863 15.061C93.4969 15.061 92.9643 15.214 92.4883 15.52C92.0236 15.826 91.6553 16.2453 91.3833 16.778C91.1226 17.3107 90.9923 17.9227 90.9923 18.614C90.9923 19.294 91.1226 19.9117 91.3833 20.467C91.6553 21.011 92.0236 21.4417 92.4883 21.759C92.9529 22.065 93.4856 22.218 94.0863 22.218ZM107.932 10.42C108.079 10.42 108.198 10.471 108.289 10.573C108.391 10.6637 108.442 10.7827 108.442 10.93V22.49C108.442 22.626 108.391 22.745 108.289 22.847C108.187 22.949 108.068 23 107.932 23C107.784 23 107.66 22.949 107.558 22.847C107.467 22.745 107.422 22.626 107.422 22.49V20.467L107.711 20.229C107.711 20.5463 107.626 20.8807 107.456 21.232C107.286 21.572 107.042 21.8893 106.725 22.184C106.419 22.4787 106.056 22.7167 105.637 22.898C105.229 23.0793 104.787 23.17 104.311 23.17C103.551 23.17 102.866 22.9717 102.254 22.575C101.653 22.1783 101.177 21.64 100.826 20.96C100.474 20.28 100.299 19.5037 100.299 18.631C100.299 17.7697 100.474 16.999 100.826 16.319C101.177 15.6277 101.653 15.0893 102.254 14.704C102.854 14.3073 103.534 14.109 104.294 14.109C104.758 14.109 105.2 14.194 105.62 14.364C106.039 14.534 106.407 14.7663 106.725 15.061C107.053 15.3557 107.308 15.6957 107.49 16.081C107.682 16.455 107.779 16.846 107.779 17.254L107.422 16.999V10.93C107.422 10.794 107.467 10.675 107.558 10.573C107.66 10.471 107.784 10.42 107.932 10.42ZM104.396 22.218C105.008 22.218 105.54 22.065 105.994 21.759C106.458 21.4417 106.821 21.0167 107.082 20.484C107.354 19.94 107.49 19.3223 107.49 18.631C107.49 17.951 107.354 17.3447 107.082 16.812C106.821 16.268 106.458 15.843 105.994 15.537C105.529 15.2197 104.996 15.061 104.396 15.061C103.806 15.061 103.274 15.2197 102.798 15.537C102.333 15.843 101.965 16.268 101.693 16.812C101.432 17.3447 101.302 17.951 101.302 18.631C101.302 19.311 101.432 19.923 101.693 20.467C101.965 21.011 102.333 21.4417 102.798 21.759C103.274 22.065 103.806 22.218 104.396 22.218ZM112.104 22.49C112.104 22.626 112.053 22.745 111.951 22.847C111.849 22.949 111.73 23 111.594 23C111.447 23 111.322 22.949 111.22 22.847C111.13 22.745 111.084 22.626 111.084 22.49V14.67C111.084 14.534 111.13 14.415 111.22 14.313C111.322 14.211 111.447 14.16 111.594 14.16C111.742 14.16 111.861 14.211 111.951 14.313C112.053 14.415 112.104 14.534 112.104 14.67V22.49ZM111.594 13.021C111.356 13.021 111.175 12.97 111.05 12.868C110.937 12.7547 110.88 12.596 110.88 12.392V12.222C110.88 12.018 110.943 11.865 111.067 11.763C111.203 11.6497 111.385 11.593 111.611 11.593C111.827 11.593 111.991 11.6497 112.104 11.763C112.229 11.865 112.291 12.018 112.291 12.222V12.392C112.291 12.596 112.229 12.7547 112.104 12.868C111.991 12.97 111.821 13.021 111.594 13.021ZM122.846 18.648C122.846 19.5093 122.659 20.2857 122.285 20.977C121.911 21.657 121.401 22.1953 120.755 22.592C120.109 22.9773 119.372 23.17 118.545 23.17C117.74 23.17 117.009 22.9773 116.352 22.592C115.706 22.1953 115.19 21.657 114.805 20.977C114.431 20.2857 114.244 19.5093 114.244 18.648C114.244 17.7753 114.431 16.999 114.805 16.319C115.19 15.639 115.706 15.1007 116.352 14.704C117.009 14.3073 117.74 14.109 118.545 14.109C119.372 14.109 120.109 14.3073 120.755 14.704C121.401 15.1007 121.911 15.639 122.285 16.319C122.659 16.999 122.846 17.7753 122.846 18.648ZM121.826 18.648C121.826 17.9567 121.684 17.3447 121.401 16.812C121.118 16.268 120.727 15.843 120.228 15.537C119.741 15.2197 119.18 15.061 118.545 15.061C117.933 15.061 117.378 15.2197 116.879 15.537C116.38 15.843 115.984 16.268 115.689 16.812C115.406 17.3447 115.264 17.9567 115.264 18.648C115.264 19.3393 115.406 19.9513 115.689 20.484C115.984 21.0167 116.38 21.4417 116.879 21.759C117.378 22.065 117.933 22.218 118.545 22.218C119.18 22.218 119.741 22.065 120.228 21.759C120.727 21.4417 121.118 21.0167 121.401 20.484C121.684 19.9513 121.826 19.3393 121.826 18.648Z" fill="white"/>
</svg>
